<?xml version="1.0" encoding="utf-8"?>
<!-- Generated by Mocodo 4.2.8 -->
<svg width="1267" height="1608" viewBox="0 0 1267 1608" xmlns="http://www.w3.org/2000/svg">
<rect x="0" y="0" width="1267" height="1608" fill="#f7f7f7" stroke="none" stroke-width="0"/>

<!-- Association WORKS_FOR1 -->
<g>
	<line x1="762" y1="194" x2="762" y2="34" stroke="#5aae61" stroke-width="2"/>
	<line x1="1078" y1="194" x2="762" y2="34" stroke="#5aae61" stroke-width="2"/>
	<g>
		<path d="M793 9 a14 14 90 0 1 14 14 V34 h-90 V23 a14 14 90 0 1 14 -14" fill="#a6dba0" stroke="#a6dba0" stroke-width="0"/>
		<path d="M807 34 v11 a14 14 90 0 1 -14 14 H731 a14 14 90 0 1 -14 -14 V34 H90" fill="#d9f0d3" stroke="#d9f0d3" stroke-width="0"/>
		<rect x="717" y="9" width="90" height="50" fill="none" rx="14" stroke="#5aae61" stroke-width="2"/>
		<line x1="717" y1="34" x2="807" y2="34" stroke="#5aae61" stroke-width="1"/>
		<text x="724" y="26.75" fill="#000000" font-family="Verdana" font-size="12">WORKS FOR</text>
	</g>
	<text x="767" y="76" fill="#762a83" font-family="Verdana" font-size="12">0,1</text>
	<text x="971" y="166.54" fill="#762a83" font-family="Verdana" font-size="12">0,N</text>
</g>

<!-- Association IS_ATTACHED_TO -->
<g>
	<line x1="1078" y1="194" x2="1078" y2="34" stroke="#5aae61" stroke-width="2"/>
	<line x1="1198" y1="34" x2="1078" y2="34" stroke="#5aae61" stroke-width="2"/>
	<g>
		<path d="M1124 9 a14 14 90 0 1 14 14 V34 h-120 V23 a14 14 90 0 1 14 -14" fill="#a6dba0" stroke="#a6dba0" stroke-width="0"/>
		<path d="M1138 34 v11 a14 14 90 0 1 -14 14 H1032 a14 14 90 0 1 -14 -14 V34 H120" fill="#d9f0d3" stroke="#d9f0d3" stroke-width="0"/>
		<rect x="1018" y="9" width="120" height="50" fill="none" rx="14" stroke="#5aae61" stroke-width="2"/>
		<line x1="1018" y1="34" x2="1138" y2="34" stroke="#5aae61" stroke-width="1"/>
		<text x="1026" y="26.75" fill="#000000" font-family="Verdana" font-size="12">IS ATTACHED TO</text>
	</g>
	<text x="1083" y="84" fill="#762a83" font-family="Verdana" font-size="12">1,1</text>
	<text x="1144" y="51" fill="#762a83" font-family="Verdana" font-size="12">0,1</text>
</g>

<!-- Association REFUNDS -->
<g>
	<line x1="458" y1="194" x2="295" y2="194" stroke="#5aae61" stroke-width="2"/>
	<line x1="152" y1="194" x2="295" y2="194" stroke="#5aae61" stroke-width="2"/>
	<g>
		<path d="M318 169 a14 14 90 0 1 14 14 V194 h-74 V183 a14 14 90 0 1 14 -14" fill="#a6dba0" stroke="#a6dba0" stroke-width="0"/>
		<path d="M332 194 v11 a14 14 90 0 1 -14 14 H272 a14 14 90 0 1 -14 -14 V194 H74" fill="#d9f0d3" stroke="#d9f0d3" stroke-width="0"/>
		<rect x="258" y="169" width="74" height="50" fill="none" rx="14" stroke="#5aae61" stroke-width="2"/>
		<line x1="258" y1="194" x2="332" y2="194" stroke="#5aae61" stroke-width="1"/>
		<text x="266" y="186.75" fill="#000000" font-family="Verdana" font-size="12">REFUNDS</text>
	</g>
	<text x="392" y="211" fill="#762a83" font-family="Verdana" font-size="12">1,1</text>
	<text x="213" y="186" fill="#762a83" font-family="Verdana" font-size="12">0,N</text>
</g>

<!-- Association IS_SENT_BY -->
<g>
	<line x1="762" y1="194" x2="605" y2="194" stroke="#5aae61" stroke-width="2"/>
	<line x1="458" y1="617" x2="605" y2="194" stroke="#5aae61" stroke-width="2"/>
	<g>
		<path d="M634 169 a14 14 90 0 1 14 14 V194 h-86 V183 a14 14 90 0 1 14 -14" fill="#a6dba0" stroke="#a6dba0" stroke-width="0"/>
		<path d="M648 194 v11 a14 14 90 0 1 -14 14 H576 a14 14 90 0 1 -14 -14 V194 H86" fill="#d9f0d3" stroke="#d9f0d3" stroke-width="0"/>
		<rect x="562" y="169" width="86" height="50" fill="none" rx="14" stroke="#5aae61" stroke-width="2"/>
		<line x1="562" y1="194" x2="648" y2="194" stroke="#5aae61" stroke-width="1"/>
		<text x="570" y="186.75" fill="#000000" font-family="Verdana" font-size="12">IS SENT BY</text>
	</g>
	<text x="654" y="211" fill="#762a83" font-family="Verdana" font-size="12">1,1</text>
	<text x="492.79" y="439" fill="#762a83" font-family="Verdana" font-size="12">0,N</text>
</g>

<!-- Association WORKS_FOR3 -->
<g>
	<line x1="921" y1="397" x2="921" y2="194" stroke="#5aae61" stroke-width="2"/>
	<line x1="1078" y1="194" x2="921" y2="194" stroke="#5aae61" stroke-width="2"/>
	<g>
		<path d="M952 169 a14 14 90 0 1 14 14 V194 h-90 V183 a14 14 90 0 1 14 -14" fill="#a6dba0" stroke="#a6dba0" stroke-width="0"/>
		<path d="M966 194 v11 a14 14 90 0 1 -14 14 H890 a14 14 90 0 1 -14 -14 V194 H90" fill="#d9f0d3" stroke="#d9f0d3" stroke-width="0"/>
		<rect x="876" y="169" width="90" height="50" fill="none" rx="14" stroke="#5aae61" stroke-width="2"/>
		<line x1="876" y1="194" x2="966" y2="194" stroke="#5aae61" stroke-width="1"/>
		<text x="883" y="186.75" fill="#000000" font-family="Verdana" font-size="12">WORKS FOR</text>
	</g>
	<text x="926" y="321" fill="#762a83" font-family="Verdana" font-size="12">0,1</text>
	<text x="971" y="211" fill="#762a83" font-family="Verdana" font-size="12">0,N</text>
</g>

<!-- Association PAYS -->
<g>
	<line x1="458" y1="617" x2="295" y2="397" stroke="#5aae61" stroke-width="2"/>
	<line x1="152" y1="194" x2="295" y2="397" stroke="#5aae61" stroke-width="2"/>
	<g>
		<path d="M304 372 a14 14 90 0 1 14 14 V397 h-46 V386 a14 14 90 0 1 14 -14" fill="#a6dba0" stroke="#a6dba0" stroke-width="0"/>
		<path d="M318 397 v11 a14 14 90 0 1 -14 14 H286 a14 14 90 0 1 -14 -14 V397 H46" fill="#d9f0d3" stroke="#d9f0d3" stroke-width="0"/>
		<rect x="272" y="372" width="46" height="50" fill="none" rx="14" stroke="#5aae61" stroke-width="2"/>
		<line x1="272" y1="397" x2="318" y2="397" stroke="#5aae61" stroke-width="1"/>
		<text x="279" y="389.75" fill="#000000" font-family="Verdana" font-size="12">PAYS</text>
	</g>
	<text x="360" y="532.57" fill="#762a83" font-family="Verdana" font-size="12">1,N</text>
	<text x="171.92" y="270" fill="#762a83" font-family="Verdana" font-size="12">1,N</text>
</g>

<!-- Association CAN_FOLLOW -->
<g>
	<line x1="458" y1="617" x2="458" y2="397" stroke="#5aae61" stroke-width="2"/>
	<line x1="458" y1="194" x2="458" y2="397" stroke="#5aae61" stroke-width="2"/>
	<g>
		<path d="M492 372 a14 14 90 0 1 14 14 V397 h-96 V386 a14 14 90 0 1 14 -14" fill="#a6dba0" stroke="#a6dba0" stroke-width="0"/>
		<path d="M506 397 v11 a14 14 90 0 1 -14 14 H424 a14 14 90 0 1 -14 -14 V397 H96" fill="#d9f0d3" stroke="#d9f0d3" stroke-width="0"/>
		<rect x="410" y="372" width="96" height="50" fill="none" rx="14" stroke="#5aae61" stroke-width="2"/>
		<line x1="410" y1="397" x2="506" y2="397" stroke="#5aae61" stroke-width="1"/>
		<text x="417" y="389.75" fill="#000000" font-family="Verdana" font-size="12">CAN FOLLOW</text>
	</g>
	<text x="463" y="439" fill="#762a83" font-family="Verdana" font-size="12">1,1</text>
	<text x="463" y="253" fill="#762a83" font-family="Verdana" font-size="12">0,N</text>
</g>

<!-- Association LIVES_IN1 -->
<g>
	<line x1="762" y1="617" x2="762" y2="397" stroke="#5aae61" stroke-width="2"/>
	<line x1="762" y1="194" x2="762" y2="397" stroke="#5aae61" stroke-width="2"/>
	<g>
		<path d="M783 372 a14 14 90 0 1 14 14 V397 h-70 V386 a14 14 90 0 1 14 -14" fill="#a6dba0" stroke="#a6dba0" stroke-width="0"/>
		<path d="M797 397 v11 a14 14 90 0 1 -14 14 H741 a14 14 90 0 1 -14 -14 V397 H70" fill="#d9f0d3" stroke="#d9f0d3" stroke-width="0"/>
		<rect x="727" y="372" width="70" height="50" fill="none" rx="14" stroke="#5aae61" stroke-width="2"/>
		<line x1="727" y1="397" x2="797" y2="397" stroke="#5aae61" stroke-width="1"/>
		<text x="735" y="389.75" fill="#000000" font-family="Verdana" font-size="12">LIVES IN</text>
	</g>
	<text x="767" y="541" fill="#762a83" font-family="Verdana" font-size="12">1,1</text>
	<text x="767" y="321" fill="#762a83" font-family="Verdana" font-size="12">1,1</text>
</g>

<!-- Association IS_FOLLOWED_BY -->
<g>
	<line x1="152" y1="397" x2="295" y2="617" stroke="#5aae61" stroke-width="2"/>
	<line x1="458" y1="617" x2="295" y2="617" stroke="#5aae61" stroke-width="2"/>
	<g>
		<path d="M341 592 a14 14 90 0 1 14 14 V617 h-120 V606 a14 14 90 0 1 14 -14" fill="#a6dba0" stroke="#a6dba0" stroke-width="0"/>
		<path d="M355 617 v11 a14 14 90 0 1 -14 14 H249 a14 14 90 0 1 -14 -14 V617 H120" fill="#d9f0d3" stroke="#d9f0d3" stroke-width="0"/>
		<rect x="235" y="592" width="120" height="50" fill="none" rx="14" stroke="#5aae61" stroke-width="2"/>
		<line x1="235" y1="617" x2="355" y2="617" stroke="#5aae61" stroke-width="1"/>
		<text x="242" y="609.75" fill="#000000" font-family="Verdana" font-size="12">IS FOLLOWED BY</text>
	</g>
	<text x="142.05" y="431" fill="#762a83" font-family="Verdana" font-size="12">0,1</text>
	<text x="361" y="634" fill="#762a83" font-family="Verdana" font-size="12">1,1</text>
</g>

<!-- Association RESIDES_IN -->
<g>
	<line x1="605" y1="812" x2="605" y2="617" stroke="#5aae61" stroke-width="2"/>
	<line x1="762" y1="617" x2="605" y2="617" stroke="#5aae61" stroke-width="2"/>
	<g>
		<path d="M635 592 a14 14 90 0 1 14 14 V617 h-88 V606 a14 14 90 0 1 14 -14" fill="#a6dba0" stroke="#a6dba0" stroke-width="0"/>
		<path d="M649 617 v11 a14 14 90 0 1 -14 14 H575 a14 14 90 0 1 -14 -14 V617 H88" fill="#d9f0d3" stroke="#d9f0d3" stroke-width="0"/>
		<rect x="561" y="592" width="88" height="50" fill="none" rx="14" stroke="#5aae61" stroke-width="2"/>
		<line x1="561" y1="617" x2="649" y2="617" stroke="#5aae61" stroke-width="1"/>
		<text x="568" y="609.75" fill="#000000" font-family="Verdana" font-size="12">RESIDES IN</text>
	</g>
	<text x="610" y="770" fill="#762a83" font-family="Verdana" font-size="12">1,1</text>
	<text x="700" y="634" fill="#762a83" font-family="Verdana" font-size="12">0,N</text>
</g>

<!-- Association LIVES_IN3 -->
<g>
	<line x1="762" y1="617" x2="921" y2="617" stroke="#5aae61" stroke-width="2"/>
	<line x1="921" y1="397" x2="921" y2="617" stroke="#5aae61" stroke-width="2"/>
	<g>
		<path d="M942 592 a14 14 90 0 1 14 14 V617 h-70 V606 a14 14 90 0 1 14 -14" fill="#a6dba0" stroke="#a6dba0" stroke-width="0"/>
		<path d="M956 617 v11 a14 14 90 0 1 -14 14 H900 a14 14 90 0 1 -14 -14 V617 H70" fill="#d9f0d3" stroke="#d9f0d3" stroke-width="0"/>
		<rect x="886" y="592" width="70" height="50" fill="none" rx="14" stroke="#5aae61" stroke-width="2"/>
		<line x1="886" y1="617" x2="956" y2="617" stroke="#5aae61" stroke-width="1"/>
		<text x="894" y="609.75" fill="#000000" font-family="Verdana" font-size="12">LIVES IN</text>
	</g>
	<text x="802" y="634" fill="#762a83" font-family="Verdana" font-size="12">1,1</text>
	<text x="926" y="482" fill="#762a83" font-family="Verdana" font-size="12">1,1</text>
</g>

<!-- Association COMPOSES1 -->
<g>
	<line x1="458" y1="617" x2="295" y2="812" stroke="#5aae61" stroke-width="2"/>
	<line x1="152" y1="812" x2="295" y2="812" stroke="#5aae61" stroke-width="2"/>
	<g>
		<path d="M323 787 a14 14 90 0 1 14 14 V812 h-84 V801 a14 14 90 0 1 14 -14" fill="#a6dba0" stroke="#a6dba0" stroke-width="0"/>
		<path d="M337 812 v11 a14 14 90 0 1 -14 14 H267 a14 14 90 0 1 -14 -14 V812 H84" fill="#d9f0d3" stroke="#d9f0d3" stroke-width="0"/>
		<rect x="253" y="787" width="84" height="50" fill="none" rx="14" stroke="#5aae61" stroke-width="2"/>
		<line x1="253" y1="812" x2="337" y2="812" stroke="#5aae61" stroke-width="1"/>
		<text x="260" y="804.75" fill="#000000" font-family="Verdana" font-size="12">COMPOSES</text>
	</g>
	<text x="361" y="700.12" fill="#762a83" font-family="Verdana" font-size="12">1,1</text>
	<text x="226" y="829" fill="#762a83" font-family="Verdana" font-size="12">1,N</text>
</g>

<!-- Association LIVES_IN2 -->
<g>
	<line x1="762" y1="617" x2="762" y2="812" stroke="#5aae61" stroke-width="2"/>
	<line x1="762" y1="1058" x2="762" y2="812" stroke="#5aae61" stroke-width="2"/>
	<g>
		<path d="M783 787 a14 14 90 0 1 14 14 V812 h-70 V801 a14 14 90 0 1 14 -14" fill="#a6dba0" stroke="#a6dba0" stroke-width="0"/>
		<path d="M797 812 v11 a14 14 90 0 1 -14 14 H741 a14 14 90 0 1 -14 -14 V812 H70" fill="#d9f0d3" stroke="#d9f0d3" stroke-width="0"/>
		<rect x="727" y="787" width="70" height="50" fill="none" rx="14" stroke="#5aae61" stroke-width="2"/>
		<line x1="727" y1="812" x2="797" y2="812" stroke="#5aae61" stroke-width="1"/>
		<text x="735" y="804.75" fill="#000000" font-family="Verdana" font-size="12">LIVES IN</text>
	</g>
	<text x="767" y="702" fill="#762a83" font-family="Verdana" font-size="12">1,1</text>
	<text x="736" y="991" fill="#762a83" font-family="Verdana" font-size="12">1,1</text>
</g>

<!-- Association WORKS_FOR2 -->
<g>
	<line x1="762" y1="1058" x2="1078" y2="812" stroke="#5aae61" stroke-width="2"/>
	<line x1="1078" y1="194" x2="1078" y2="812" stroke="#5aae61" stroke-width="2"/>
	<g>
		<path d="M1109 787 a14 14 90 0 1 14 14 V812 h-90 V801 a14 14 90 0 1 14 -14" fill="#a6dba0" stroke="#a6dba0" stroke-width="0"/>
		<path d="M1123 812 v11 a14 14 90 0 1 -14 14 H1047 a14 14 90 0 1 -14 -14 V812 H90" fill="#d9f0d3" stroke="#d9f0d3" stroke-width="0"/>
		<rect x="1033" y="787" width="90" height="50" fill="none" rx="14" stroke="#5aae61" stroke-width="2"/>
		<line x1="1033" y1="812" x2="1123" y2="812" stroke="#5aae61" stroke-width="1"/>
		<text x="1040" y="804.75" fill="#000000" font-family="Verdana" font-size="12">WORKS FOR</text>
	</g>
	<text x="818" y="1029.46" fill="#762a83" font-family="Verdana" font-size="12">0,1</text>
	<text x="1083" y="313" fill="#762a83" font-family="Verdana" font-size="12">0,N</text>
</g>

<!-- Association CONTAINS -->
<g>
	<line x1="295" y1="1058" x2="152" y2="1058" stroke="#5aae61" stroke-width="2"/>
	<line x1="152" y1="812" x2="152" y2="1058" stroke="#5aae61" stroke-width="2"/>
	<g>
		<path d="M178 1033 a14 14 90 0 1 14 14 V1058 h-80 V1047 a14 14 90 0 1 14 -14" fill="#a6dba0" stroke="#a6dba0" stroke-width="0"/>
		<path d="M192 1058 v11 a14 14 90 0 1 -14 14 H126 a14 14 90 0 1 -14 -14 V1058 H80" fill="#d9f0d3" stroke="#d9f0d3" stroke-width="0"/>
		<rect x="112" y="1033" width="80" height="50" fill="none" rx="14" stroke="#5aae61" stroke-width="2"/>
		<line x1="112" y1="1058" x2="192" y2="1058" stroke="#5aae61" stroke-width="1"/>
		<text x="119" y="1050.75" fill="#000000" font-family="Verdana" font-size="12">CONTAINS</text>
	</g>
	<text x="211" y="1050" fill="#762a83" font-family="Verdana" font-size="12">1,N</text>
	<text x="157" y="965" fill="#762a83" font-family="Verdana" font-size="12">1,N</text>
</g>

<!-- Association IS_RECEIVED_BY -->
<g>
	<line x1="762" y1="1058" x2="605" y2="1058" stroke="#5aae61" stroke-width="2"/>
	<line x1="458" y1="617" x2="605" y2="1058" stroke="#5aae61" stroke-width="2"/>
	<g>
		<path d="M648 1033 a14 14 90 0 1 14 14 V1058 h-114 V1047 a14 14 90 0 1 14 -14" fill="#a6dba0" stroke="#a6dba0" stroke-width="0"/>
		<path d="M662 1058 v11 a14 14 90 0 1 -14 14 H562 a14 14 90 0 1 -14 -14 V1058 H114" fill="#d9f0d3" stroke="#d9f0d3" stroke-width="0"/>
		<rect x="548" y="1033" width="114" height="50" fill="none" rx="14" stroke="#5aae61" stroke-width="2"/>
		<line x1="548" y1="1058" x2="662" y2="1058" stroke="#5aae61" stroke-width="1"/>
		<text x="555" y="1050.75" fill="#000000" font-family="Verdana" font-size="12">IS RECEIVED BY</text>
	</g>
	<text x="685" y="1075" fill="#762a83" font-family="Verdana" font-size="12">1,1</text>
	<text x="490.27" y="804" fill="#762a83" font-family="Verdana" font-size="12">0,N</text>
</g>

<!-- Association IS_DESCRIBED_BY -->
<g>
	<line x1="152" y1="1421" x2="152" y2="1193" stroke="#5aae61" stroke-width="2"/>
	<line x1="295" y1="1058" x2="152" y2="1193" stroke="#5aae61" stroke-width="2"/>
	<g>
		<path d="M200 1168 a14 14 90 0 1 14 14 V1193 h-124 V1182 a14 14 90 0 1 14 -14" fill="#a6dba0" stroke="#a6dba0" stroke-width="0"/>
		<path d="M214 1193 v11 a14 14 90 0 1 -14 14 H104 a14 14 90 0 1 -14 -14 V1193 H124" fill="#d9f0d3" stroke="#d9f0d3" stroke-width="0"/>
		<rect x="90" y="1168" width="124" height="50" fill="none" rx="14" stroke="#5aae61" stroke-width="2"/>
		<line x1="90" y1="1193" x2="214" y2="1193" stroke="#5aae61" stroke-width="1"/>
		<text x="97" y="1185.75" fill="#000000" font-family="Verdana" font-size="12">IS DESCRIBED BY</text>
	</g>
	<text x="157" y="1379" fill="#762a83" font-family="Verdana" font-size="12">1,1</text>
	<text x="211" y="1110.59" fill="#762a83" font-family="Verdana" font-size="12">0,N</text>
</g>

<!-- Association CERTIFICATES -->
<g>
	<line x1="295" y1="1058" x2="458" y2="1193" stroke="#5aae61" stroke-width="2"/>
	<line x1="458" y1="1421" x2="458" y2="1193" stroke="#5aae61" stroke-width="2"/>
	<g>
		<path d="M496 1168 a14 14 90 0 1 14 14 V1193 h-104 V1182 a14 14 90 0 1 14 -14" fill="#a6dba0" stroke="#a6dba0" stroke-width="0"/>
		<path d="M510 1193 v11 a14 14 90 0 1 -14 14 H420 a14 14 90 0 1 -14 -14 V1193 H104" fill="#d9f0d3" stroke="#d9f0d3" stroke-width="0"/>
		<rect x="406" y="1168" width="104" height="50" fill="none" rx="14" stroke="#5aae61" stroke-width="2"/>
		<line x1="406" y1="1193" x2="510" y2="1193" stroke="#5aae61" stroke-width="1"/>
		<text x="413" y="1185.75" fill="#000000" font-family="Verdana" font-size="12">CERTIFICATES</text>
	</g>
	<text x="357" y="1103.34" fill="#762a83" font-family="Verdana" font-size="12">1,1</text>
	<text x="463" y="1235" fill="#762a83" font-family="Verdana" font-size="12">0,1</text>
</g>

<!-- Entity NOTE -->
<g>
	<g>
		<rect x="1170" y="9" width="56" height="25" fill="#c2a5cf" stroke="none" stroke-width="0" opacity="1"/>
		<rect x="1170" y="34" width="56" height="25" fill="#e7d4e8" stroke="none" stroke-width="0" opacity="1"/>
		<rect x="1170" y="9" width="56" height="50" fill="none" stroke="#9970ab" stroke-width="2" opacity="1"/>
		<line x1="1170" y1="34" x2="1226" y2="34" stroke="#9970ab" stroke-width="1"/>
	</g>
	<text x="1181" y="26.75" fill="#000000" font-family="Verdana" font-size="12">NOTE</text>
	<text x="1175" y="51.8" fill="#000000" font-family="Verdana" font-size="12">content</text>
	<line x1="1175" y1="54" x2="1221" y2="54" stroke="#000000" stroke-width="1"/>
</g>

<!-- Entity TRANSACTION -->
<g>
	<g>
		<rect x="96" y="135" width="112" height="25" fill="#c2a5cf" stroke="none" stroke-width="0" opacity="1"/>
		<rect x="96" y="160" width="112" height="93" fill="#e7d4e8" stroke="none" stroke-width="0" opacity="1"/>
		<rect x="96" y="135" width="112" height="118" fill="none" stroke="#9970ab" stroke-width="2" opacity="1"/>
		<line x1="96" y1="160" x2="208" y2="160" stroke="#9970ab" stroke-width="1"/>
	</g>
	<text x="107" y="152.75" fill="#000000" font-family="Verdana" font-size="12">TRANSACTION</text>
	<text x="101" y="177.8" fill="#000000" font-family="Verdana" font-size="12">account_number</text>
	<line x1="101" y1="180" x2="203" y2="180" stroke="#000000" stroke-width="1"/>
	<text x="101" y="194.8" fill="#000000" font-family="Verdana" font-size="12">type</text>
	<text x="101" y="211.8" fill="#000000" font-family="Verdana" font-size="12">amount_ht</text>
	<text x="101" y="228.8" fill="#000000" font-family="Verdana" font-size="12">amount_ttc</text>
	<text x="101" y="245.8" fill="#000000" font-family="Verdana" font-size="12">date</text>
</g>

<!-- Entity CLAIM -->
<g>
	<g>
		<rect x="418" y="152" width="80" height="25" fill="#c2a5cf" stroke="none" stroke-width="0" opacity="1"/>
		<rect x="418" y="177" width="80" height="59" fill="#e7d4e8" stroke="none" stroke-width="0" opacity="1"/>
		<rect x="418" y="152" width="80" height="84" fill="none" stroke="#9970ab" stroke-width="2" opacity="1"/>
		<line x1="418" y1="177" x2="498" y2="177" stroke="#9970ab" stroke-width="1"/>
	</g>
	<text x="439" y="169.75" fill="#000000" font-family="Verdana" font-size="12">CLAIM</text>
	<text x="423" y="194.8" fill="#000000" font-family="Verdana" font-size="12">reason</text>
	<line x1="423" y1="197" x2="465" y2="197" stroke="#000000" stroke-width="1"/>
	<text x="423" y="211.8" fill="#000000" font-family="Verdana" font-size="12">amount_ht</text>
	<text x="423" y="228.8" fill="#000000" font-family="Verdana" font-size="12">amount_ttc</text>
</g>

<!-- Entity ULTIMATE_CONSIGNEE -->
<g>
	<g>
		<rect x="680" y="84" width="164" height="25" fill="#c2a5cf" stroke="none" stroke-width="0" opacity="1"/>
		<rect x="680" y="109" width="164" height="195" fill="#e7d4e8" stroke="none" stroke-width="0" opacity="1"/>
		<rect x="680" y="84" width="164" height="220" fill="none" stroke="#9970ab" stroke-width="2" opacity="1"/>
		<line x1="680" y1="109" x2="844" y2="109" stroke="#9970ab" stroke-width="1"/>
	</g>
	<text x="690" y="101.75" fill="#000000" font-family="Verdana" font-size="12">ULTIMATE_CONSIGNEE</text>
	<text x="685" y="126.8" fill="#000000" font-family="Verdana" font-size="12">contact_name</text>
	<line x1="685" y1="129" x2="771" y2="129" stroke="#000000" stroke-width="1"/>
	<text x="685" y="143.8" fill="#000000" font-family="Verdana" font-size="12">phone_number</text>
	<text x="685" y="160.8" fill="#000000" font-family="Verdana" font-size="12">email_address</text>
	<text x="685" y="177.8" fill="#000000" font-family="Verdana" font-size="12">siret</text>
	<text x="685" y="194.8" fill="#000000" font-family="Verdana" font-size="12">tva_reference</text>
	<text x="685" y="211.8" fill="#000000" font-family="Verdana" font-size="12">fda_number</text>
	<text x="685" y="228.8" fill="#000000" font-family="Verdana" font-size="12">eori_reference</text>
	<text x="685" y="245.8" fill="#000000" font-family="Verdana" font-size="12">fedex_account_reference</text>
	<text x="685" y="262.8" fill="#000000" font-family="Verdana" font-size="12">tiers_code</text>
	<text x="685" y="279.8" fill="#000000" font-family="Verdana" font-size="12">import_license</text>
	<text x="685" y="296.8" fill="#000000" font-family="Verdana" font-size="12">tax_id</text>
</g>

<!-- Entity EMPLOYEE -->
<g>
	<g>
		<rect x="998" y="92" width="160" height="25" fill="#c2a5cf" stroke="none" stroke-width="0" opacity="1"/>
		<rect x="998" y="117" width="160" height="179" fill="#e7d4e8" stroke="none" stroke-width="0" opacity="1"/>
		<rect x="998" y="92" width="160" height="204" fill="none" stroke="#9970ab" stroke-width="2" opacity="1"/>
		<line x1="998" y1="117" x2="1158" y2="117" stroke="#9970ab" stroke-width="1"/>
	</g>
	<text x="1046" y="109.75" fill="#000000" font-family="Verdana" font-size="12">EMPLOYEE</text>
	<text x="1003" y="134.8" fill="#000000" font-family="Verdana" font-size="12">email</text>
	<line x1="1003" y1="137" x2="1037" y2="137" stroke="#000000" stroke-width="1"/>
	<text x="1003" y="151.8" fill="#000000" font-family="Verdana" font-size="12">firstname</text>
	<text x="1003" y="168.8" fill="#000000" font-family="Verdana" font-size="12">lastname</text>
	<text x="1003" y="185.8" fill="#000000" font-family="Verdana" font-size="12">password</text>
	<text x="1003" y="202.8" fill="#000000" font-family="Verdana" font-size="12">role</text>
	<text x="1003" y="219.8" fill="#000000" font-family="Verdana" font-size="12">civility</text>
	<text x="1003" y="236.8" fill="#000000" font-family="Verdana" font-size="12">job</text>
	<text x="1003" y="253.8" fill="#000000" font-family="Verdana" font-size="12">language_iso_code</text>
	<text x="1003" y="270.8" fill="#000000" font-family="Verdana" font-size="12">phone_portable_number</text>
	<text x="1003" y="287.8" fill="#000000" font-family="Verdana" font-size="12">phone_fix_number</text>
</g>

<!-- Entity PRIOR_NOTICE -->
<g>
	<g>
		<rect x="100" y="380" width="104" height="25" fill="#c2a5cf" stroke="none" stroke-width="0" opacity="1"/>
		<rect x="100" y="405" width="104" height="9" fill="#e7d4e8" stroke="none" stroke-width="0" opacity="1"/>
		<rect x="100" y="380" width="104" height="34" fill="none" stroke="#9970ab" stroke-width="2" opacity="1"/>
		<line x1="100" y1="405" x2="204" y2="405" stroke="#9970ab" stroke-width="1"/>
	</g>
	<text x="105" y="397.75" fill="#000000" font-family="Verdana" font-size="12">PRIOR_NOTICE</text>
</g>

<!-- Entity EXPORTER -->
<g>
	<g>
		<rect x="870" y="329" width="102" height="25" fill="#c2a5cf" stroke="none" stroke-width="0" opacity="1"/>
		<rect x="870" y="354" width="102" height="111" fill="#e7d4e8" stroke="none" stroke-width="0" opacity="1"/>
		<rect x="870" y="329" width="102" height="136" fill="none" stroke="#9970ab" stroke-width="2" opacity="1"/>
		<line x1="870" y1="354" x2="972" y2="354" stroke="#9970ab" stroke-width="1"/>
	</g>
	<text x="889" y="346.75" fill="#000000" font-family="Verdana" font-size="12">EXPORTER</text>
	<text x="875" y="371.8" fill="#000000" font-family="Verdana" font-size="12">contact_name</text>
	<line x1="875" y1="374" x2="961" y2="374" stroke="#000000" stroke-width="1"/>
	<text x="875" y="388.8" fill="#000000" font-family="Verdana" font-size="12">phone_number</text>
	<text x="875" y="405.8" fill="#000000" font-family="Verdana" font-size="12">email_address</text>
	<text x="875" y="422.8" fill="#000000" font-family="Verdana" font-size="12">eori_reference</text>
	<text x="875" y="439.8" fill="#000000" font-family="Verdana" font-size="12">siret</text>
	<text x="875" y="456.8" fill="#000000" font-family="Verdana" font-size="12">tva_reference</text>
</g>

<!-- Entity ORDER -->
<g>
	<g>
		<rect x="387" y="447" width="142" height="25" fill="#c2a5cf" stroke="none" stroke-width="0" opacity="1"/>
		<rect x="387" y="472" width="142" height="315" fill="#e7d4e8" stroke="none" stroke-width="0" opacity="1"/>
		<rect x="387" y="447" width="142" height="340" fill="none" stroke="#9970ab" stroke-width="2" opacity="1"/>
		<line x1="387" y1="472" x2="529" y2="472" stroke="#9970ab" stroke-width="1"/>
	</g>
	<text x="436" y="464.75" fill="#000000" font-family="Verdana" font-size="12">ORDER</text>
	<text x="392" y="489.8" fill="#000000" font-family="Verdana" font-size="12">reference</text>
	<line x1="392" y1="492" x2="450" y2="492" stroke="#000000" stroke-width="1"/>
	<text x="392" y="506.8" fill="#000000" font-family="Verdana" font-size="12">type</text>
	<text x="392" y="523.8" fill="#000000" font-family="Verdana" font-size="12">reason</text>
	<text x="392" y="540.8" fill="#000000" font-family="Verdana" font-size="12">payment_term</text>
	<text x="392" y="557.8" fill="#000000" font-family="Verdana" font-size="12">shipping_type</text>
	<text x="392" y="574.8" fill="#000000" font-family="Verdana" font-size="12">shipping_amount_ht</text>
	<text x="392" y="591.8" fill="#000000" font-family="Verdana" font-size="12">shipping_amount_ttc</text>
	<text x="392" y="608.8" fill="#000000" font-family="Verdana" font-size="12">shipping_tax_amount</text>
	<text x="392" y="625.8" fill="#000000" font-family="Verdana" font-size="12">total_ht</text>
	<text x="392" y="642.8" fill="#000000" font-family="Verdana" font-size="12">total_ttc</text>
	<text x="392" y="659.8" fill="#000000" font-family="Verdana" font-size="12">is_valid</text>
	<text x="392" y="676.8" fill="#000000" font-family="Verdana" font-size="12">is_over</text>
	<text x="392" y="693.8" fill="#000000" font-family="Verdana" font-size="12">commentary</text>
	<text x="392" y="710.8" fill="#000000" font-family="Verdana" font-size="12">delivery_instruction</text>
	<text x="392" y="727.8" fill="#000000" font-family="Verdana" font-size="12">creation_date</text>
	<text x="392" y="744.8" fill="#000000" font-family="Verdana" font-size="12">update_date</text>
	<text x="392" y="761.8" fill="#000000" font-family="Verdana" font-size="12">invoice_date</text>
	<text x="392" y="778.8" fill="#000000" font-family="Verdana" font-size="12">shipping_date</text>
</g>

<!-- Entity ADDRESS -->
<g>
	<g>
		<rect x="727" y="549" width="70" height="25" fill="#c2a5cf" stroke="none" stroke-width="0" opacity="1"/>
		<rect x="727" y="574" width="70" height="111" fill="#e7d4e8" stroke="none" stroke-width="0" opacity="1"/>
		<rect x="727" y="549" width="70" height="136" fill="none" stroke="#9970ab" stroke-width="2" opacity="1"/>
		<line x1="727" y1="574" x2="797" y2="574" stroke="#9970ab" stroke-width="1"/>
	</g>
	<text x="732" y="566.75" fill="#000000" font-family="Verdana" font-size="12">ADDRESS</text>
	<text x="732" y="591.8" fill="#000000" font-family="Verdana" font-size="12">address1</text>
	<line x1="732" y1="594" x2="788" y2="594" stroke="#000000" stroke-width="1"/>
	<text x="732" y="608.8" fill="#000000" font-family="Verdana" font-size="12">address2</text>
	<text x="732" y="625.8" fill="#000000" font-family="Verdana" font-size="12">city</text>
	<text x="732" y="642.8" fill="#000000" font-family="Verdana" font-size="12">zip_code</text>
	<text x="732" y="659.8" fill="#000000" font-family="Verdana" font-size="12">type</text>
	<text x="732" y="676.8" fill="#000000" font-family="Verdana" font-size="12">is_default</text>
</g>

<!-- Entity PACKAGE -->
<g>
	<g>
		<rect x="83" y="676" width="138" height="25" fill="#c2a5cf" stroke="none" stroke-width="0" opacity="1"/>
		<rect x="83" y="701" width="138" height="247" fill="#e7d4e8" stroke="none" stroke-width="0" opacity="1"/>
		<rect x="83" y="676" width="138" height="272" fill="none" stroke="#9970ab" stroke-width="2" opacity="1"/>
		<line x1="83" y1="701" x2="221" y2="701" stroke="#9970ab" stroke-width="1"/>
	</g>
	<text x="123" y="693.75" fill="#000000" font-family="Verdana" font-size="12">PACKAGE</text>
	<text x="88" y="718.8" fill="#000000" font-family="Verdana" font-size="12">quantity</text>
	<line x1="88" y1="721" x2="139" y2="721" stroke="#000000" stroke-width="1"/>
	<text x="88" y="735.8" fill="#000000" font-family="Verdana" font-size="12">type</text>
	<text x="88" y="752.8" fill="#000000" font-family="Verdana" font-size="12">shipping_type</text>
	<text x="88" y="769.8" fill="#000000" font-family="Verdana" font-size="12">product_ht</text>
	<text x="88" y="786.8" fill="#000000" font-family="Verdana" font-size="12">product_ttc</text>
	<text x="88" y="803.8" fill="#000000" font-family="Verdana" font-size="12">product_tax_amount</text>
	<text x="88" y="820.8" fill="#000000" font-family="Verdana" font-size="12">weight</text>
	<text x="88" y="837.8" fill="#000000" font-family="Verdana" font-size="12">width</text>
	<text x="88" y="854.8" fill="#000000" font-family="Verdana" font-size="12">length</text>
	<text x="88" y="871.8" fill="#000000" font-family="Verdana" font-size="12">height</text>
	<text x="88" y="888.8" fill="#000000" font-family="Verdana" font-size="12">tracking_number</text>
	<text x="88" y="905.8" fill="#000000" font-family="Verdana" font-size="12">is_delivered</text>
	<text x="88" y="922.8" fill="#000000" font-family="Verdana" font-size="12">creation_date</text>
	<text x="88" y="939.8" fill="#000000" font-family="Verdana" font-size="12">update_date</text>
</g>

<!-- Entity COUNTRY -->
<g>
	<g>
		<rect x="570" y="778" width="70" height="25" fill="#c2a5cf" stroke="none" stroke-width="0" opacity="1"/>
		<rect x="570" y="803" width="70" height="43" fill="#e7d4e8" stroke="none" stroke-width="0" opacity="1"/>
		<rect x="570" y="778" width="70" height="68" fill="none" stroke="#9970ab" stroke-width="2" opacity="1"/>
		<line x1="570" y1="803" x2="640" y2="803" stroke="#9970ab" stroke-width="1"/>
	</g>
	<text x="575" y="795.75" fill="#000000" font-family="Verdana" font-size="12">COUNTRY</text>
	<text x="575" y="820.8" fill="#000000" font-family="Verdana" font-size="12">iso_code</text>
	<line x1="575" y1="823" x2="629" y2="823" stroke="#000000" stroke-width="1"/>
	<text x="575" y="837.8" fill="#000000" font-family="Verdana" font-size="12">name</text>
</g>

<!-- Entity PRODUCT -->
<g>
	<g>
		<rect x="238" y="973" width="114" height="25" fill="#c2a5cf" stroke="none" stroke-width="0" opacity="1"/>
		<rect x="238" y="998" width="114" height="145" fill="#e7d4e8" stroke="none" stroke-width="0" opacity="1"/>
		<rect x="238" y="973" width="114" height="170" fill="none" stroke="#9970ab" stroke-width="2" opacity="1"/>
		<line x1="238" y1="998" x2="352" y2="998" stroke="#9970ab" stroke-width="1"/>
	</g>
	<text x="265" y="990.75" fill="#000000" font-family="Verdana" font-size="12">PRODUCT</text>
	<text x="243" y="1015.8" fill="#000000" font-family="Verdana" font-size="12">type</text>
	<line x1="243" y1="1018" x2="271" y2="1018" stroke="#000000" stroke-width="1"/>
	<text x="243" y="1032.8" fill="#000000" font-family="Verdana" font-size="12">primary_name</text>
	<text x="243" y="1049.8" fill="#000000" font-family="Verdana" font-size="12">secondary_name</text>
	<text x="243" y="1066.8" fill="#000000" font-family="Verdana" font-size="12">alcool_degree</text>
	<text x="243" y="1083.8" fill="#000000" font-family="Verdana" font-size="12">price_ht</text>
	<text x="243" y="1100.8" fill="#000000" font-family="Verdana" font-size="12">price_ttc</text>
	<text x="243" y="1117.8" fill="#000000" font-family="Verdana" font-size="12">tax_amount</text>
	<text x="243" y="1134.8" fill="#000000" font-family="Verdana" font-size="12">weight</text>
</g>

<!-- Entity RECIPIENT -->
<g>
	<g>
		<rect x="711" y="999" width="102" height="25" fill="#c2a5cf" stroke="none" stroke-width="0" opacity="1"/>
		<rect x="711" y="1024" width="102" height="93" fill="#e7d4e8" stroke="none" stroke-width="0" opacity="1"/>
		<rect x="711" y="999" width="102" height="118" fill="none" stroke="#9970ab" stroke-width="2" opacity="1"/>
		<line x1="711" y1="1024" x2="813" y2="1024" stroke="#9970ab" stroke-width="1"/>
	</g>
	<text x="729" y="1016.75" fill="#000000" font-family="Verdana" font-size="12">RECIPIENT</text>
	<text x="716" y="1041.8" fill="#000000" font-family="Verdana" font-size="12">contact_name</text>
	<line x1="716" y1="1044" x2="802" y2="1044" stroke="#000000" stroke-width="1"/>
	<text x="716" y="1058.8" fill="#000000" font-family="Verdana" font-size="12">phone_number</text>
	<text x="716" y="1075.8" fill="#000000" font-family="Verdana" font-size="12">email_address</text>
	<text x="716" y="1092.8" fill="#000000" font-family="Verdana" font-size="12">siret</text>
	<text x="716" y="1109.8" fill="#000000" font-family="Verdana" font-size="12">tva_reference</text>
</g>

<!-- Entity PRODUCT_TYPE -->
<g>
	<g>
		<rect x="73" y="1387" width="158" height="25" fill="#c2a5cf" stroke="none" stroke-width="0" opacity="1"/>
		<rect x="73" y="1412" width="158" height="43" fill="#e7d4e8" stroke="none" stroke-width="0" opacity="1"/>
		<rect x="73" y="1387" width="158" height="68" fill="none" stroke="#9970ab" stroke-width="2" opacity="1"/>
		<line x1="73" y1="1412" x2="231" y2="1412" stroke="#9970ab" stroke-width="1"/>
	</g>
	<text x="104" y="1404.75" fill="#000000" font-family="Verdana" font-size="12">PRODUCT_TYPE</text>
	<text x="78" y="1429.8" fill="#000000" font-family="Verdana" font-size="12">name</text>
	<line x1="78" y1="1432" x2="113" y2="1432" stroke="#000000" stroke-width="1"/>
	<text x="78" y="1446.8" fill="#000000" font-family="Verdana" font-size="12">is_certification_required</text>
</g>

<!-- Entity COLA -->
<g>
	<g>
		<rect x="354" y="1243" width="208" height="25" fill="#c2a5cf" stroke="none" stroke-width="0" opacity="1"/>
		<rect x="354" y="1268" width="208" height="331" fill="#e7d4e8" stroke="none" stroke-width="0" opacity="1"/>
		<rect x="354" y="1243" width="208" height="356" fill="none" stroke="#9970ab" stroke-width="2" opacity="1"/>
		<line x1="354" y1="1268" x2="562" y2="1268" stroke="#9970ab" stroke-width="1"/>
	</g>
	<text x="441" y="1260.75" fill="#000000" font-family="Verdana" font-size="12">COLA</text>
	<text x="359" y="1285.8" fill="#000000" font-family="Verdana" font-size="12">registry_number</text>
	<line x1="359" y1="1288" x2="461" y2="1288" stroke="#000000" stroke-width="1"/>
	<text x="359" y="1302.8" fill="#000000" font-family="Verdana" font-size="12">product_source</text>
	<text x="359" y="1319.8" fill="#000000" font-family="Verdana" font-size="12">serial_number</text>
	<text x="359" y="1336.8" fill="#000000" font-family="Verdana" font-size="12">product_type</text>
	<text x="359" y="1353.8" fill="#000000" font-family="Verdana" font-size="12">brand_name</text>
	<text x="359" y="1370.8" fill="#000000" font-family="Verdana" font-size="12">fanciful_name</text>
	<text x="359" y="1387.8" fill="#000000" font-family="Verdana" font-size="12">ultimate_consignee_address</text>
	<text x="359" y="1404.8" fill="#000000" font-family="Verdana" font-size="12">formula</text>
	<text x="359" y="1421.8" fill="#000000" font-family="Verdana" font-size="12">grape_varietal</text>
	<text x="359" y="1438.8" fill="#000000" font-family="Verdana" font-size="12">wine_appellation</text>
	<text x="359" y="1455.8" fill="#000000" font-family="Verdana" font-size="12">phone_number</text>
	<text x="359" y="1472.8" fill="#000000" font-family="Verdana" font-size="12">email_address</text>
	<text x="359" y="1489.8" fill="#000000" font-family="Verdana" font-size="12">application_type</text>
	<text x="359" y="1506.8" fill="#000000" font-family="Verdana" font-size="12">product_image</text>
	<text x="359" y="1523.8" fill="#000000" font-family="Verdana" font-size="12">certification_application_date</text>
	<text x="359" y="1540.8" fill="#000000" font-family="Verdana" font-size="12">certification_applicant_signature</text>
	<text x="359" y="1557.8" fill="#000000" font-family="Verdana" font-size="12">certification_applicant_name</text>
	<text x="359" y="1574.8" fill="#000000" font-family="Verdana" font-size="12">ttb_certification_date</text>
	<text x="359" y="1591.8" fill="#000000" font-family="Verdana" font-size="12">ttb_certification_signature</text>
</g>
</svg>