<?xml version="1.0" encoding="utf-8"?>
<!-- Generated by Mocodo 4.2.8 -->
<svg width="746" height="704" viewBox="0 0 746 704" xmlns="http://www.w3.org/2000/svg">
<rect x="0" y="0" width="746" height="704" fill="#ffffbf" stroke="none" stroke-width="0"/>

<!-- Association LIVES_IN -->
<g>
	<line x1="420" y1="94" x2="248" y2="94" stroke="#f46d43" stroke-width="2"/>
	<line x1="91" y1="94" x2="248" y2="94" stroke="#f46d43" stroke-width="2"/>
	<g>
		<path d="M269 69 a14 14 90 0 1 14 14 V94 h-70 V83 a14 14 90 0 1 14 -14" fill="#fdae61" stroke="#fdae61" stroke-width="0"/>
		<path d="M283 94 v11 a14 14 90 0 1 -14 14 H227 a14 14 90 0 1 -14 -14 V94 H70" fill="#fee08b" stroke="#fee08b" stroke-width="0"/>
		<rect x="213" y="69" width="70" height="50" fill="none" rx="14" stroke="#f46d43" stroke-width="2"/>
		<line x1="213" y1="94" x2="283" y2="94" stroke="#f46d43" stroke-width="1"/>
		<text x="221" y="86.75" fill="#000000" font-family="Verdana" font-size="12">LIVES IN</text>
	</g>
	<text x="359" y="111" fill="#3288bd" font-family="Verdana" font-size="12">1,1</text>
	<text x="178" y="111" fill="#3288bd" font-family="Verdana" font-size="12">1,1</text>
</g>

<!-- Association DETERMINES_LOCATION_OF -->
<g>
	<line x1="248" y1="306" x2="579" y2="94" stroke="#f46d43" stroke-width="2"/>
	<line x1="420" y1="94" x2="579" y2="94" stroke="#f46d43" stroke-width="2"/>
	<g>
		<path d="M657 69 a14 14 90 0 1 14 14 V94 h-184 V83 a14 14 90 0 1 14 -14" fill="#fdae61" stroke="#fdae61" stroke-width="0"/>
		<path d="M671 94 v11 a14 14 90 0 1 -14 14 H501 a14 14 90 0 1 -14 -14 V94 H184" fill="#fee08b" stroke="#fee08b" stroke-width="0"/>
		<rect x="487" y="69" width="184" height="50" fill="none" rx="14" stroke="#f46d43" stroke-width="2"/>
		<line x1="487" y1="94" x2="671" y2="94" stroke="#f46d43" stroke-width="1"/>
		<text x="494" y="86.75" fill="#000000" font-family="Verdana" font-size="12">DETERMINES LOCATION OF</text>
	</g>
	<text x="333" y="266.83" fill="#3288bd" font-family="Verdana" font-size="12">0,N</text>
	<text x="460" y="111" fill="#3288bd" font-family="Verdana" font-size="12">1,N</text>
</g>

<!-- Association WORKS_FOR -->
<g>
	<line x1="91" y1="94" x2="91" y2="306" stroke="#f46d43" stroke-width="2"/>
	<line x1="248" y1="306" x2="91" y2="306" stroke="#f46d43" stroke-width="2"/>
	<g>
		<path d="M122 281 a14 14 90 0 1 14 14 V306 h-90 V295 a14 14 90 0 1 14 -14" fill="#fdae61" stroke="#fdae61" stroke-width="0"/>
		<path d="M136 306 v11 a14 14 90 0 1 -14 14 H60 a14 14 90 0 1 -14 -14 V306 H90" fill="#fee08b" stroke="#fee08b" stroke-width="0"/>
		<rect x="46" y="281" width="90" height="50" fill="none" rx="14" stroke="#f46d43" stroke-width="2"/>
		<line x1="46" y1="306" x2="136" y2="306" stroke="#f46d43" stroke-width="1"/>
		<text x="53" y="298.75" fill="#000000" font-family="Verdana" font-size="12">WORKS FOR</text>
	</g>
	<text x="96" y="196" fill="#3288bd" font-family="Verdana" font-size="12">1,1</text>
	<text x="141" y="323" fill="#3288bd" font-family="Verdana" font-size="12">0,N</text>
</g>

<!-- Association IS_ATTACHED_TO -->
<g>
	<line x1="579" y1="306" x2="420" y2="306" stroke="#f46d43" stroke-width="2"/>
	<line x1="248" y1="306" x2="420" y2="306" stroke="#f46d43" stroke-width="2"/>
	<g>
		<path d="M466 281 a14 14 90 0 1 14 14 V306 h-120 V295 a14 14 90 0 1 14 -14" fill="#fdae61" stroke="#fdae61" stroke-width="0"/>
		<path d="M480 306 v11 a14 14 90 0 1 -14 14 H374 a14 14 90 0 1 -14 -14 V306 H120" fill="#fee08b" stroke="#fee08b" stroke-width="0"/>
		<rect x="360" y="281" width="120" height="50" fill="none" rx="14" stroke="#f46d43" stroke-width="2"/>
		<line x1="360" y1="306" x2="480" y2="306" stroke="#f46d43" stroke-width="1"/>
		<text x="368" y="298.75" fill="#000000" font-family="Verdana" font-size="12">IS ATTACHED TO</text>
	</g>
	<text x="525" y="323" fill="#3288bd" font-family="Verdana" font-size="12">0,1</text>
	<text x="333" y="323" fill="#3288bd" font-family="Verdana" font-size="12">1,1</text>
</g>

<!-- Association IS_ASSIGNED_BY -->
<g>
	<line x1="248" y1="306" x2="248" y2="458" stroke="#f46d43" stroke-width="2"/>
	<line x1="420" y1="610" x2="248" y2="458" stroke="#f46d43" stroke-width="2"/>
	<g>
		<path d="M293 433 a14 14 90 0 1 14 14 V458 h-118 V447 a14 14 90 0 1 14 -14" fill="#fdae61" stroke="#fdae61" stroke-width="0"/>
		<path d="M307 458 v11 a14 14 90 0 1 -14 14 H203 a14 14 90 0 1 -14 -14 V458 H118" fill="#fee08b" stroke="#fee08b" stroke-width="0"/>
		<rect x="189" y="433" width="118" height="50" fill="none" rx="14" stroke="#f46d43" stroke-width="2"/>
		<line x1="189" y1="458" x2="307" y2="458" stroke="#f46d43" stroke-width="1"/>
		<text x="197" y="450.75" fill="#000000" font-family="Verdana" font-size="12">IS ASSIGNED BY</text>
	</g>
	<text x="253" y="425" fill="#3288bd" font-family="Verdana" font-size="12">1,1</text>
	<text x="359" y="590.5" fill="#3288bd" font-family="Verdana" font-size="12">0,N</text>
</g>

<!-- Association IS_TRIGGERED_BY -->
<g>
	<line x1="420" y1="610" x2="579" y2="458" stroke="#f46d43" stroke-width="2"/>
	<line x1="420" y1="458" x2="579" y2="458" stroke="#f46d43" stroke-width="2"/>
	<g>
		<path d="M628 433 a14 14 90 0 1 14 14 V458 h-126 V447 a14 14 90 0 1 14 -14" fill="#fdae61" stroke="#fdae61" stroke-width="0"/>
		<path d="M642 458 v11 a14 14 90 0 1 -14 14 H530 a14 14 90 0 1 -14 -14 V458 H126" fill="#fee08b" stroke="#fee08b" stroke-width="0"/>
		<rect x="516" y="433" width="126" height="50" fill="none" rx="14" stroke="#f46d43" stroke-width="2"/>
		<line x1="516" y1="458" x2="642" y2="458" stroke="#f46d43" stroke-width="1"/>
		<text x="524" y="450.75" fill="#000000" font-family="Verdana" font-size="12">IS TRIGGERED BY</text>
	</g>
	<text x="459" y="587.65" fill="#3288bd" font-family="Verdana" font-size="12">1,1</text>
	<text x="457" y="475" fill="#3288bd" font-family="Verdana" font-size="12">0,N</text>
</g>

<!-- Association IS_COMPOSED_OF -->
<g>
	<line x1="91" y1="610" x2="248" y2="610" stroke="#f46d43" stroke-width="2"/>
	<line x1="420" y1="610" x2="248" y2="610" stroke="#f46d43" stroke-width="2"/>
	<g>
		<path d="M296 585 a14 14 90 0 1 14 14 V610 h-124 V599 a14 14 90 0 1 14 -14" fill="#fdae61" stroke="#fdae61" stroke-width="0"/>
		<path d="M310 610 v11 a14 14 90 0 1 -14 14 H200 a14 14 90 0 1 -14 -14 V610 H124" fill="#fee08b" stroke="#fee08b" stroke-width="0"/>
		<rect x="186" y="585" width="124" height="50" fill="none" rx="14" stroke="#f46d43" stroke-width="2"/>
		<line x1="186" y1="610" x2="310" y2="610" stroke="#f46d43" stroke-width="1"/>
		<text x="194" y="602.75" fill="#000000" font-family="Verdana" font-size="12">IS COMPOSED OF</text>
	</g>
	<text x="135" y="627" fill="#3288bd" font-family="Verdana" font-size="12">1,N</text>
	<text x="359" y="627" fill="#3288bd" font-family="Verdana" font-size="12">0,N</text>
</g>

<!-- Association IS_CREATED_BY -->
<g>
	<line x1="703" y1="610" x2="579" y2="610" stroke="#f46d43" stroke-width="2"/>
	<line x1="420" y1="610" x2="579" y2="610" stroke="#f46d43" stroke-width="2"/>
	<g>
		<path d="M620 585 a14 14 90 0 1 14 14 V610 h-110 V599 a14 14 90 0 1 14 -14" fill="#fdae61" stroke="#fdae61" stroke-width="0"/>
		<path d="M634 610 v11 a14 14 90 0 1 -14 14 H538 a14 14 90 0 1 -14 -14 V610 H110" fill="#fee08b" stroke="#fee08b" stroke-width="0"/>
		<rect x="524" y="585" width="110" height="50" fill="none" rx="14" stroke="#f46d43" stroke-width="2"/>
		<line x1="524" y1="610" x2="634" y2="610" stroke="#f46d43" stroke-width="1"/>
		<text x="532" y="602.75" fill="#000000" font-family="Verdana" font-size="12">IS CREATED BY</text>
	</g>
	<text x="643" y="627" fill="#3288bd" font-family="Verdana" font-size="12">1,1</text>
	<text x="459" y="627" fill="#3288bd" font-family="Verdana" font-size="12">0,N</text>
</g>

<!-- Entity CUSTOMER -->
<g>
	<g>
		<rect x="9" y="9" width="164" height="25" fill="#abdda4" stroke="none" stroke-width="0" opacity="1"/>
		<rect x="9" y="34" width="164" height="145" fill="#e6f598" stroke="none" stroke-width="0" opacity="1"/>
		<rect x="9" y="9" width="164" height="170" fill="none" stroke="#66c2a5" stroke-width="2" opacity="1"/>
		<line x1="9" y1="34" x2="173" y2="34" stroke="#66c2a5" stroke-width="1"/>
	</g>
	<text x="57" y="26.75" fill="#000000" font-family="Verdana" font-size="12">CUSTOMER</text>
	<text x="14" y="51.8" fill="#000000" font-family="Verdana" font-size="12">name</text>
	<line x1="14" y1="54" x2="49" y2="54" stroke="#000000" stroke-width="1"/>
	<text x="14" y="68.8" fill="#000000" font-family="Verdana" font-size="12">siret</text>
	<text x="14" y="85.8" fill="#000000" font-family="Verdana" font-size="12">tva_reference</text>
	<text x="14" y="102.8" fill="#000000" font-family="Verdana" font-size="12">fda_number</text>
	<text x="14" y="119.8" fill="#000000" font-family="Verdana" font-size="12">eori_reference</text>
	<text x="14" y="136.8" fill="#000000" font-family="Verdana" font-size="12">fedex_account_reference</text>
	<text x="14" y="153.8" fill="#000000" font-family="Verdana" font-size="12">tiers_code</text>
	<text x="14" y="170.8" fill="#000000" font-family="Verdana" font-size="12">default_order_category</text>
</g>

<!-- Entity ADDRESS -->
<g>
	<g>
		<rect x="385" y="26" width="70" height="25" fill="#abdda4" stroke="none" stroke-width="0" opacity="1"/>
		<rect x="385" y="51" width="70" height="111" fill="#e6f598" stroke="none" stroke-width="0" opacity="1"/>
		<rect x="385" y="26" width="70" height="136" fill="none" stroke="#66c2a5" stroke-width="2" opacity="1"/>
		<line x1="385" y1="51" x2="455" y2="51" stroke="#66c2a5" stroke-width="1"/>
	</g>
	<text x="390" y="43.75" fill="#000000" font-family="Verdana" font-size="12">ADDRESS</text>
	<text x="390" y="68.8" fill="#000000" font-family="Verdana" font-size="12">alias</text>
	<line x1="390" y1="71" x2="418" y2="71" stroke="#000000" stroke-width="1"/>
	<text x="390" y="85.8" fill="#000000" font-family="Verdana" font-size="12">address1</text>
	<text x="390" y="102.8" fill="#000000" font-family="Verdana" font-size="12">address2</text>
	<text x="390" y="119.8" fill="#000000" font-family="Verdana" font-size="12">city</text>
	<text x="390" y="136.8" fill="#000000" font-family="Verdana" font-size="12">zipcode</text>
	<text x="390" y="153.8" fill="#000000" font-family="Verdana" font-size="12">country</text>
</g>

<!-- Entity EMPLOYEE -->
<g>
	<g>
		<rect x="168" y="204" width="160" height="25" fill="#abdda4" stroke="none" stroke-width="0" opacity="1"/>
		<rect x="168" y="229" width="160" height="179" fill="#e6f598" stroke="none" stroke-width="0" opacity="1"/>
		<rect x="168" y="204" width="160" height="204" fill="none" stroke="#66c2a5" stroke-width="2" opacity="1"/>
		<line x1="168" y1="229" x2="328" y2="229" stroke="#66c2a5" stroke-width="1"/>
	</g>
	<text x="216" y="221.75" fill="#000000" font-family="Verdana" font-size="12">EMPLOYEE</text>
	<text x="173" y="246.8" fill="#000000" font-family="Verdana" font-size="12">email</text>
	<line x1="173" y1="249" x2="207" y2="249" stroke="#000000" stroke-width="1"/>
	<text x="173" y="263.8" fill="#000000" font-family="Verdana" font-size="12">firstname</text>
	<text x="173" y="280.8" fill="#000000" font-family="Verdana" font-size="12">lastname</text>
	<text x="173" y="297.8" fill="#000000" font-family="Verdana" font-size="12">password</text>
	<text x="173" y="314.8" fill="#000000" font-family="Verdana" font-size="12">role</text>
	<text x="173" y="331.8" fill="#000000" font-family="Verdana" font-size="12">civility</text>
	<text x="173" y="348.8" fill="#000000" font-family="Verdana" font-size="12">job</text>
	<text x="173" y="365.8" fill="#000000" font-family="Verdana" font-size="12">language_iso_code</text>
	<text x="173" y="382.8" fill="#000000" font-family="Verdana" font-size="12">phone_portable_number</text>
	<text x="173" y="399.8" fill="#000000" font-family="Verdana" font-size="12">phone_fix_number</text>
</g>

<!-- Entity NOTE -->
<g>
	<g>
		<rect x="551" y="281" width="56" height="25" fill="#abdda4" stroke="none" stroke-width="0" opacity="1"/>
		<rect x="551" y="306" width="56" height="25" fill="#e6f598" stroke="none" stroke-width="0" opacity="1"/>
		<rect x="551" y="281" width="56" height="50" fill="none" stroke="#66c2a5" stroke-width="2" opacity="1"/>
		<line x1="551" y1="306" x2="607" y2="306" stroke="#66c2a5" stroke-width="1"/>
	</g>
	<text x="562" y="298.75" fill="#000000" font-family="Verdana" font-size="12">NOTE</text>
	<text x="556" y="323.8" fill="#000000" font-family="Verdana" font-size="12">content</text>
	<line x1="556" y1="326" x2="602" y2="326" stroke="#000000" stroke-width="1"/>
</g>

<!-- Entity REFUND -->
<g>
	<g>
		<rect x="388" y="416" width="64" height="25" fill="#abdda4" stroke="none" stroke-width="0" opacity="1"/>
		<rect x="388" y="441" width="64" height="59" fill="#e6f598" stroke="none" stroke-width="0" opacity="1"/>
		<rect x="388" y="416" width="64" height="84" fill="none" stroke="#66c2a5" stroke-width="2" opacity="1"/>
		<line x1="388" y1="441" x2="452" y2="441" stroke="#66c2a5" stroke-width="1"/>
	</g>
	<text x="395" y="433.75" fill="#000000" font-family="Verdana" font-size="12">REFUND</text>
	<text x="393" y="458.8" fill="#000000" font-family="Verdana" font-size="12">reason</text>
	<line x1="393" y1="461" x2="435" y2="461" stroke="#000000" stroke-width="1"/>
	<text x="393" y="475.8" fill="#000000" font-family="Verdana" font-size="12">price_ht</text>
	<text x="393" y="492.8" fill="#000000" font-family="Verdana" font-size="12">price_ttc</text>
</g>

<!-- Entity PRODUCT -->
<g>
	<g>
		<rect x="52" y="559" width="78" height="25" fill="#abdda4" stroke="none" stroke-width="0" opacity="1"/>
		<rect x="52" y="584" width="78" height="77" fill="#e6f598" stroke="none" stroke-width="0" opacity="1"/>
		<rect x="52" y="559" width="78" height="102" fill="none" stroke="#66c2a5" stroke-width="2" opacity="1"/>
		<line x1="52" y1="584" x2="130" y2="584" stroke="#66c2a5" stroke-width="1"/>
	</g>
	<text x="61" y="576.75" fill="#000000" font-family="Verdana" font-size="12">PRODUCT</text>
	<text x="57" y="601.8" fill="#000000" font-family="Verdana" font-size="12">reference</text>
	<line x1="57" y1="604" x2="115" y2="604" stroke="#000000" stroke-width="1"/>
	<text x="57" y="618.8" fill="#000000" font-family="Verdana" font-size="12">description</text>
	<text x="57" y="635.8" fill="#000000" font-family="Verdana" font-size="12">price_ht</text>
	<text x="57" y="652.8" fill="#000000" font-family="Verdana" font-size="12">price_ttc</text>
</g>

<!-- Entity ORDER -->
<g>
	<g>
		<rect x="386" y="525" width="68" height="25" fill="#abdda4" stroke="none" stroke-width="0" opacity="1"/>
		<rect x="386" y="550" width="68" height="145" fill="#e6f598" stroke="none" stroke-width="0" opacity="1"/>
		<rect x="386" y="525" width="68" height="170" fill="none" stroke="#66c2a5" stroke-width="2" opacity="1"/>
		<line x1="386" y1="550" x2="454" y2="550" stroke="#66c2a5" stroke-width="1"/>
	</g>
	<text x="398" y="542.75" fill="#000000" font-family="Verdana" font-size="12">ORDER</text>
	<text x="391" y="567.8" fill="#000000" font-family="Verdana" font-size="12">reference</text>
	<line x1="391" y1="570" x2="449" y2="570" stroke="#000000" stroke-width="1"/>
	<text x="391" y="584.8" fill="#000000" font-family="Verdana" font-size="12">category</text>
	<text x="391" y="601.8" fill="#000000" font-family="Verdana" font-size="12">valid</text>
	<text x="391" y="618.8" fill="#000000" font-family="Verdana" font-size="12">paid</text>
	<text x="391" y="635.8" fill="#000000" font-family="Verdana" font-size="12">shipped</text>
	<text x="391" y="652.8" fill="#000000" font-family="Verdana" font-size="12">cancelled</text>
	<text x="391" y="669.8" fill="#000000" font-family="Verdana" font-size="12">total_ht</text>
	<text x="391" y="686.8" fill="#000000" font-family="Verdana" font-size="12">total_ttc</text>
</g>

<!-- Entity USER -->
<g>
	<g>
		<rect x="669" y="559" width="68" height="25" fill="#abdda4" stroke="none" stroke-width="0" opacity="1"/>
		<rect x="669" y="584" width="68" height="77" fill="#e6f598" stroke="none" stroke-width="0" opacity="1"/>
		<rect x="669" y="559" width="68" height="102" fill="none" stroke="#66c2a5" stroke-width="2" opacity="1"/>
		<line x1="669" y1="584" x2="737" y2="584" stroke="#66c2a5" stroke-width="1"/>
	</g>
	<text x="686" y="576.75" fill="#000000" font-family="Verdana" font-size="12">USER</text>
	<text x="674" y="601.8" fill="#000000" font-family="Verdana" font-size="12">email</text>
	<line x1="674" y1="604" x2="708" y2="604" stroke="#000000" stroke-width="1"/>
	<text x="674" y="618.8" fill="#000000" font-family="Verdana" font-size="12">pseudo</text>
	<text x="674" y="635.8" fill="#000000" font-family="Verdana" font-size="12">password</text>
	<text x="674" y="652.8" fill="#000000" font-family="Verdana" font-size="12">role</text>
</g>
</svg>