<?xml version="1.0" encoding="utf-8"?>
<!-- Generated by Mocodo 4.2.8 -->
<svg width="1338" height="1573" viewBox="0 0 1338 1573" xmlns="http://www.w3.org/2000/svg">
<rect x="0" y="0" width="1338" height="1573" fill="#f7f7f7" stroke="none" stroke-width="0"/>

<!-- Association WORKS_FOR1 -->
<g>
	<line x1="833" y1="194" x2="833" y2="34" stroke="#5aae61" stroke-width="2"/>
	<line x1="1149" y1="194" x2="833" y2="34" stroke="#5aae61" stroke-width="2"/>
	<g>
		<path d="M864 9 a14 14 90 0 1 14 14 V34 h-90 V23 a14 14 90 0 1 14 -14" fill="#a6dba0" stroke="#a6dba0" stroke-width="0"/>
		<path d="M878 34 v11 a14 14 90 0 1 -14 14 H802 a14 14 90 0 1 -14 -14 V34 H90" fill="#d9f0d3" stroke="#d9f0d3" stroke-width="0"/>
		<rect x="788" y="9" width="90" height="50" fill="none" rx="14" stroke="#5aae61" stroke-width="2"/>
		<line x1="788" y1="34" x2="878" y2="34" stroke="#5aae61" stroke-width="1"/>
		<text x="795" y="26.75" fill="#000000" font-family="Verdana" font-size="12">WORKS FOR</text>
	</g>
	<text x="838" y="76" fill="#762a83" font-family="Verdana" font-size="12">0,1</text>
	<text x="1042" y="166.54" fill="#762a83" font-family="Verdana" font-size="12">0,N</text>
</g>

<!-- Association IS_ATTACHED_TO -->
<g>
	<line x1="1149" y1="194" x2="1149" y2="34" stroke="#5aae61" stroke-width="2"/>
	<line x1="1269" y1="34" x2="1149" y2="34" stroke="#5aae61" stroke-width="2"/>
	<g>
		<path d="M1195 9 a14 14 90 0 1 14 14 V34 h-120 V23 a14 14 90 0 1 14 -14" fill="#a6dba0" stroke="#a6dba0" stroke-width="0"/>
		<path d="M1209 34 v11 a14 14 90 0 1 -14 14 H1103 a14 14 90 0 1 -14 -14 V34 H120" fill="#d9f0d3" stroke="#d9f0d3" stroke-width="0"/>
		<rect x="1089" y="9" width="120" height="50" fill="none" rx="14" stroke="#5aae61" stroke-width="2"/>
		<line x1="1089" y1="34" x2="1209" y2="34" stroke="#5aae61" stroke-width="1"/>
		<text x="1097" y="26.75" fill="#000000" font-family="Verdana" font-size="12">IS ATTACHED TO</text>
	</g>
	<text x="1154" y="84" fill="#762a83" font-family="Verdana" font-size="12">1,1</text>
	<text x="1215" y="51" fill="#762a83" font-family="Verdana" font-size="12">0,1</text>
</g>

<!-- Association IS_SENT_BY -->
<g>
	<line x1="833" y1="194" x2="676" y2="194" stroke="#5aae61" stroke-width="2"/>
	<line x1="529" y1="617" x2="676" y2="194" stroke="#5aae61" stroke-width="2"/>
	<g>
		<path d="M705 169 a14 14 90 0 1 14 14 V194 h-86 V183 a14 14 90 0 1 14 -14" fill="#a6dba0" stroke="#a6dba0" stroke-width="0"/>
		<path d="M719 194 v11 a14 14 90 0 1 -14 14 H647 a14 14 90 0 1 -14 -14 V194 H86" fill="#d9f0d3" stroke="#d9f0d3" stroke-width="0"/>
		<rect x="633" y="169" width="86" height="50" fill="none" rx="14" stroke="#5aae61" stroke-width="2"/>
		<line x1="633" y1="194" x2="719" y2="194" stroke="#5aae61" stroke-width="1"/>
		<text x="641" y="186.75" fill="#000000" font-family="Verdana" font-size="12">IS SENT BY</text>
	</g>
	<text x="725" y="211" fill="#762a83" font-family="Verdana" font-size="12">1,1</text>
	<text x="563.79" y="439" fill="#762a83" font-family="Verdana" font-size="12">0,N</text>
</g>

<!-- Association WORKS_FOR3 -->
<g>
	<line x1="992" y1="397" x2="992" y2="194" stroke="#5aae61" stroke-width="2"/>
	<line x1="1149" y1="194" x2="992" y2="194" stroke="#5aae61" stroke-width="2"/>
	<g>
		<path d="M1023 169 a14 14 90 0 1 14 14 V194 h-90 V183 a14 14 90 0 1 14 -14" fill="#a6dba0" stroke="#a6dba0" stroke-width="0"/>
		<path d="M1037 194 v11 a14 14 90 0 1 -14 14 H961 a14 14 90 0 1 -14 -14 V194 H90" fill="#d9f0d3" stroke="#d9f0d3" stroke-width="0"/>
		<rect x="947" y="169" width="90" height="50" fill="none" rx="14" stroke="#5aae61" stroke-width="2"/>
		<line x1="947" y1="194" x2="1037" y2="194" stroke="#5aae61" stroke-width="1"/>
		<text x="954" y="186.75" fill="#000000" font-family="Verdana" font-size="12">WORKS FOR</text>
	</g>
	<text x="997" y="321" fill="#762a83" font-family="Verdana" font-size="12">0,1</text>
	<text x="1042" y="211" fill="#762a83" font-family="Verdana" font-size="12">0,N</text>
</g>

<!-- Association CAN_FOLLOW -->
<g>
	<line x1="529" y1="617" x2="529" y2="397" stroke="#5aae61" stroke-width="2"/>
	<line x1="529" y1="194" x2="529" y2="397" stroke="#5aae61" stroke-width="2"/>
	<g>
		<path d="M563 372 a14 14 90 0 1 14 14 V397 h-96 V386 a14 14 90 0 1 14 -14" fill="#a6dba0" stroke="#a6dba0" stroke-width="0"/>
		<path d="M577 397 v11 a14 14 90 0 1 -14 14 H495 a14 14 90 0 1 -14 -14 V397 H96" fill="#d9f0d3" stroke="#d9f0d3" stroke-width="0"/>
		<rect x="481" y="372" width="96" height="50" fill="none" rx="14" stroke="#5aae61" stroke-width="2"/>
		<line x1="481" y1="397" x2="577" y2="397" stroke="#5aae61" stroke-width="1"/>
		<text x="488" y="389.75" fill="#000000" font-family="Verdana" font-size="12">CAN FOLLOW</text>
	</g>
	<text x="503" y="439" fill="#762a83" font-family="Verdana" font-size="12">1,1</text>
	<text x="534" y="253" fill="#762a83" font-family="Verdana" font-size="12">0,N</text>
</g>

<!-- Association LIVES_IN1 -->
<g>
	<line x1="833" y1="617" x2="833" y2="397" stroke="#5aae61" stroke-width="2"/>
	<line x1="833" y1="194" x2="833" y2="397" stroke="#5aae61" stroke-width="2"/>
	<g>
		<path d="M854 372 a14 14 90 0 1 14 14 V397 h-70 V386 a14 14 90 0 1 14 -14" fill="#a6dba0" stroke="#a6dba0" stroke-width="0"/>
		<path d="M868 397 v11 a14 14 90 0 1 -14 14 H812 a14 14 90 0 1 -14 -14 V397 H70" fill="#d9f0d3" stroke="#d9f0d3" stroke-width="0"/>
		<rect x="798" y="372" width="70" height="50" fill="none" rx="14" stroke="#5aae61" stroke-width="2"/>
		<line x1="798" y1="397" x2="868" y2="397" stroke="#5aae61" stroke-width="1"/>
		<text x="806" y="389.75" fill="#000000" font-family="Verdana" font-size="12">LIVES IN</text>
	</g>
	<text x="838" y="541" fill="#762a83" font-family="Verdana" font-size="12">1,1</text>
	<text x="838" y="321" fill="#762a83" font-family="Verdana" font-size="12">1,1</text>
</g>

<!-- Association IS_FOLLOWED_BY -->
<g>
	<line x1="324" y1="397" x2="324" y2="617" stroke="#5aae61" stroke-width="2"/>
	<line x1="529" y1="617" x2="324" y2="617" stroke="#5aae61" stroke-width="2"/>
	<g>
		<path d="M370 592 a14 14 90 0 1 14 14 V617 h-120 V606 a14 14 90 0 1 14 -14" fill="#a6dba0" stroke="#a6dba0" stroke-width="0"/>
		<path d="M384 617 v11 a14 14 90 0 1 -14 14 H278 a14 14 90 0 1 -14 -14 V617 H120" fill="#d9f0d3" stroke="#d9f0d3" stroke-width="0"/>
		<rect x="264" y="592" width="120" height="50" fill="none" rx="14" stroke="#5aae61" stroke-width="2"/>
		<line x1="264" y1="617" x2="384" y2="617" stroke="#5aae61" stroke-width="1"/>
		<text x="271" y="609.75" fill="#000000" font-family="Verdana" font-size="12">IS FOLLOWED BY</text>
	</g>
	<text x="329" y="431" fill="#762a83" font-family="Verdana" font-size="12">0,1</text>
	<text x="432" y="609" fill="#762a83" font-family="Verdana" font-size="12">1,1</text>
</g>

<!-- Association RESIDES_IN -->
<g>
	<line x1="676" y1="837" x2="676" y2="617" stroke="#5aae61" stroke-width="2"/>
	<line x1="833" y1="617" x2="676" y2="617" stroke="#5aae61" stroke-width="2"/>
	<g>
		<path d="M706 592 a14 14 90 0 1 14 14 V617 h-88 V606 a14 14 90 0 1 14 -14" fill="#a6dba0" stroke="#a6dba0" stroke-width="0"/>
		<path d="M720 617 v11 a14 14 90 0 1 -14 14 H646 a14 14 90 0 1 -14 -14 V617 H88" fill="#d9f0d3" stroke="#d9f0d3" stroke-width="0"/>
		<rect x="632" y="592" width="88" height="50" fill="none" rx="14" stroke="#5aae61" stroke-width="2"/>
		<line x1="632" y1="617" x2="720" y2="617" stroke="#5aae61" stroke-width="1"/>
		<text x="639" y="609.75" fill="#000000" font-family="Verdana" font-size="12">RESIDES IN</text>
	</g>
	<text x="681" y="795" fill="#762a83" font-family="Verdana" font-size="12">1,1</text>
	<text x="771" y="634" fill="#762a83" font-family="Verdana" font-size="12">0,N</text>
</g>

<!-- Association LIVES_IN3 -->
<g>
	<line x1="833" y1="617" x2="992" y2="617" stroke="#5aae61" stroke-width="2"/>
	<line x1="992" y1="397" x2="992" y2="617" stroke="#5aae61" stroke-width="2"/>
	<g>
		<path d="M1013 592 a14 14 90 0 1 14 14 V617 h-70 V606 a14 14 90 0 1 14 -14" fill="#a6dba0" stroke="#a6dba0" stroke-width="0"/>
		<path d="M1027 617 v11 a14 14 90 0 1 -14 14 H971 a14 14 90 0 1 -14 -14 V617 H70" fill="#d9f0d3" stroke="#d9f0d3" stroke-width="0"/>
		<rect x="957" y="592" width="70" height="50" fill="none" rx="14" stroke="#5aae61" stroke-width="2"/>
		<line x1="957" y1="617" x2="1027" y2="617" stroke="#5aae61" stroke-width="1"/>
		<text x="965" y="609.75" fill="#000000" font-family="Verdana" font-size="12">LIVES IN</text>
	</g>
	<text x="873" y="634" fill="#762a83" font-family="Verdana" font-size="12">1,1</text>
	<text x="997" y="482" fill="#762a83" font-family="Verdana" font-size="12">1,1</text>
</g>

<!-- Association COMPOSES1 -->
<g>
	<line x1="529" y1="617" x2="324" y2="837" stroke="#5aae61" stroke-width="2"/>
	<line x1="148" y1="837" x2="324" y2="837" stroke="#5aae61" stroke-width="2"/>
	<g>
		<path d="M352 812 a14 14 90 0 1 14 14 V837 h-84 V826 a14 14 90 0 1 14 -14" fill="#a6dba0" stroke="#a6dba0" stroke-width="0"/>
		<path d="M366 837 v11 a14 14 90 0 1 -14 14 H296 a14 14 90 0 1 -14 -14 V837 H84" fill="#d9f0d3" stroke="#d9f0d3" stroke-width="0"/>
		<rect x="282" y="812" width="84" height="50" fill="none" rx="14" stroke="#5aae61" stroke-width="2"/>
		<line x1="282" y1="837" x2="366" y2="837" stroke="#5aae61" stroke-width="1"/>
		<text x="289" y="829.75" fill="#000000" font-family="Verdana" font-size="12">COMPOSES</text>
	</g>
	<text x="432" y="691.91" fill="#762a83" font-family="Verdana" font-size="12">1,1</text>
	<text x="222" y="854" fill="#762a83" font-family="Verdana" font-size="12">1,N</text>
</g>

<!-- Association PAYS -->
<g>
	<line x1="529" y1="617" x2="529" y2="837" stroke="#5aae61" stroke-width="2"/>
	<line x1="529" y1="1023" x2="529" y2="837" stroke="#5aae61" stroke-width="2"/>
	<g>
		<path d="M538 812 a14 14 90 0 1 14 14 V837 h-46 V826 a14 14 90 0 1 14 -14" fill="#a6dba0" stroke="#a6dba0" stroke-width="0"/>
		<path d="M552 837 v11 a14 14 90 0 1 -14 14 H520 a14 14 90 0 1 -14 -14 V837 H46" fill="#d9f0d3" stroke="#d9f0d3" stroke-width="0"/>
		<rect x="506" y="812" width="46" height="50" fill="none" rx="14" stroke="#5aae61" stroke-width="2"/>
		<line x1="506" y1="837" x2="552" y2="837" stroke="#5aae61" stroke-width="1"/>
		<text x="513" y="829.75" fill="#000000" font-family="Verdana" font-size="12">PAYS</text>
	</g>
	<text x="534" y="804" fill="#762a83" font-family="Verdana" font-size="12">1,N</text>
	<text x="534" y="956" fill="#762a83" font-family="Verdana" font-size="12">1,N</text>
</g>

<!-- Association LIVES_IN2 -->
<g>
	<line x1="833" y1="617" x2="833" y2="837" stroke="#5aae61" stroke-width="2"/>
	<line x1="833" y1="1023" x2="833" y2="837" stroke="#5aae61" stroke-width="2"/>
	<g>
		<path d="M854 812 a14 14 90 0 1 14 14 V837 h-70 V826 a14 14 90 0 1 14 -14" fill="#a6dba0" stroke="#a6dba0" stroke-width="0"/>
		<path d="M868 837 v11 a14 14 90 0 1 -14 14 H812 a14 14 90 0 1 -14 -14 V837 H70" fill="#d9f0d3" stroke="#d9f0d3" stroke-width="0"/>
		<rect x="798" y="812" width="70" height="50" fill="none" rx="14" stroke="#5aae61" stroke-width="2"/>
		<line x1="798" y1="837" x2="868" y2="837" stroke="#5aae61" stroke-width="1"/>
		<text x="806" y="829.75" fill="#000000" font-family="Verdana" font-size="12">LIVES IN</text>
	</g>
	<text x="838" y="702" fill="#762a83" font-family="Verdana" font-size="12">1,1</text>
	<text x="807" y="956" fill="#762a83" font-family="Verdana" font-size="12">1,1</text>
</g>

<!-- Association WORKS_FOR2 -->
<g>
	<line x1="833" y1="1023" x2="1149" y2="837" stroke="#5aae61" stroke-width="2"/>
	<line x1="1149" y1="194" x2="1149" y2="837" stroke="#5aae61" stroke-width="2"/>
	<g>
		<path d="M1180 812 a14 14 90 0 1 14 14 V837 h-90 V826 a14 14 90 0 1 14 -14" fill="#a6dba0" stroke="#a6dba0" stroke-width="0"/>
		<path d="M1194 837 v11 a14 14 90 0 1 -14 14 H1118 a14 14 90 0 1 -14 -14 V837 H90" fill="#d9f0d3" stroke="#d9f0d3" stroke-width="0"/>
		<rect x="1104" y="812" width="90" height="50" fill="none" rx="14" stroke="#5aae61" stroke-width="2"/>
		<line x1="1104" y1="837" x2="1194" y2="837" stroke="#5aae61" stroke-width="1"/>
		<text x="1111" y="829.75" fill="#000000" font-family="Verdana" font-size="12">WORKS FOR</text>
	</g>
	<text x="889" y="1005.42" fill="#762a83" font-family="Verdana" font-size="12">0,1</text>
	<text x="1154" y="313" fill="#762a83" font-family="Verdana" font-size="12">0,N</text>
</g>

<!-- Association CONTAINS -->
<g>
	<line x1="324" y1="1023" x2="148" y2="1023" stroke="#5aae61" stroke-width="2"/>
	<line x1="148" y1="837" x2="148" y2="1023" stroke="#5aae61" stroke-width="2"/>
	<g>
		<path d="M174 998 a14 14 90 0 1 14 14 V1023 h-80 V1012 a14 14 90 0 1 14 -14" fill="#a6dba0" stroke="#a6dba0" stroke-width="0"/>
		<path d="M188 1023 v11 a14 14 90 0 1 -14 14 H122 a14 14 90 0 1 -14 -14 V1023 H80" fill="#d9f0d3" stroke="#d9f0d3" stroke-width="0"/>
		<rect x="108" y="998" width="80" height="50" fill="none" rx="14" stroke="#5aae61" stroke-width="2"/>
		<line x1="108" y1="1023" x2="188" y2="1023" stroke="#5aae61" stroke-width="1"/>
		<text x="115" y="1015.75" fill="#000000" font-family="Verdana" font-size="12">CONTAINS</text>
	</g>
	<text x="240" y="1015" fill="#762a83" font-family="Verdana" font-size="12">1,N</text>
	<text x="153" y="990" fill="#762a83" font-family="Verdana" font-size="12">1,N</text>
</g>

<!-- Association IS_RECEIVED_BY -->
<g>
	<line x1="833" y1="1023" x2="676" y2="1023" stroke="#5aae61" stroke-width="2"/>
	<line x1="529" y1="617" x2="676" y2="1023" stroke="#5aae61" stroke-width="2"/>
	<g>
		<path d="M719 998 a14 14 90 0 1 14 14 V1023 h-114 V1012 a14 14 90 0 1 14 -14" fill="#a6dba0" stroke="#a6dba0" stroke-width="0"/>
		<path d="M733 1023 v11 a14 14 90 0 1 -14 14 H633 a14 14 90 0 1 -14 -14 V1023 H114" fill="#d9f0d3" stroke="#d9f0d3" stroke-width="0"/>
		<rect x="619" y="998" width="114" height="50" fill="none" rx="14" stroke="#5aae61" stroke-width="2"/>
		<line x1="619" y1="1023" x2="733" y2="1023" stroke="#5aae61" stroke-width="1"/>
		<text x="626" y="1015.75" fill="#000000" font-family="Verdana" font-size="12">IS RECEIVED BY</text>
	</g>
	<text x="756" y="1040" fill="#762a83" font-family="Verdana" font-size="12">1,1</text>
	<text x="566.38" y="804" fill="#762a83" font-family="Verdana" font-size="12">0,N</text>
</g>

<!-- Association IS_DESCRIBED_BY -->
<g>
	<line x1="148" y1="1386" x2="148" y2="1158" stroke="#5aae61" stroke-width="2"/>
	<line x1="324" y1="1023" x2="148" y2="1158" stroke="#5aae61" stroke-width="2"/>
	<g>
		<path d="M196 1133 a14 14 90 0 1 14 14 V1158 h-124 V1147 a14 14 90 0 1 14 -14" fill="#a6dba0" stroke="#a6dba0" stroke-width="0"/>
		<path d="M210 1158 v11 a14 14 90 0 1 -14 14 H100 a14 14 90 0 1 -14 -14 V1158 H124" fill="#d9f0d3" stroke="#d9f0d3" stroke-width="0"/>
		<rect x="86" y="1133" width="124" height="50" fill="none" rx="14" stroke="#5aae61" stroke-width="2"/>
		<line x1="86" y1="1158" x2="210" y2="1158" stroke="#5aae61" stroke-width="1"/>
		<text x="93" y="1150.75" fill="#000000" font-family="Verdana" font-size="12">IS DESCRIBED BY</text>
	</g>
	<text x="153" y="1344" fill="#762a83" font-family="Verdana" font-size="12">1,1</text>
	<text x="240" y="1064.49" fill="#762a83" font-family="Verdana" font-size="12">0,N</text>
</g>

<!-- Association IS_DEFINED_BY -->
<g>
	<line x1="324" y1="1386" x2="324" y2="1158" stroke="#5aae61" stroke-width="2"/>
	<line x1="324" y1="1023" x2="324" y2="1158" stroke="#5aae61" stroke-width="2"/>
	<g>
		<path d="M364 1133 a14 14 90 0 1 14 14 V1158 h-108 V1147 a14 14 90 0 1 14 -14" fill="#a6dba0" stroke="#a6dba0" stroke-width="0"/>
		<path d="M378 1158 v11 a14 14 90 0 1 -14 14 H284 a14 14 90 0 1 -14 -14 V1158 H108" fill="#d9f0d3" stroke="#d9f0d3" stroke-width="0"/>
		<rect x="270" y="1133" width="108" height="50" fill="none" rx="14" stroke="#5aae61" stroke-width="2"/>
		<line x1="270" y1="1158" x2="378" y2="1158" stroke="#5aae61" stroke-width="1"/>
		<text x="278" y="1150.75" fill="#000000" font-family="Verdana" font-size="12">IS DEFINED BY</text>
	</g>
	<text x="329" y="1344" fill="#762a83" font-family="Verdana" font-size="12">1,1</text>
	<text x="329" y="1125" fill="#762a83" font-family="Verdana" font-size="12">0,N</text>
</g>

<!-- Association CERTIFICATES -->
<g>
	<line x1="324" y1="1023" x2="529" y2="1158" stroke="#5aae61" stroke-width="2"/>
	<line x1="529" y1="1386" x2="529" y2="1158" stroke="#5aae61" stroke-width="2"/>
	<g>
		<path d="M567 1133 a14 14 90 0 1 14 14 V1158 h-104 V1147 a14 14 90 0 1 14 -14" fill="#a6dba0" stroke="#a6dba0" stroke-width="0"/>
		<path d="M581 1158 v11 a14 14 90 0 1 -14 14 H491 a14 14 90 0 1 -14 -14 V1158 H104" fill="#d9f0d3" stroke="#d9f0d3" stroke-width="0"/>
		<rect x="477" y="1133" width="104" height="50" fill="none" rx="14" stroke="#5aae61" stroke-width="2"/>
		<line x1="477" y1="1158" x2="581" y2="1158" stroke="#5aae61" stroke-width="1"/>
		<text x="484" y="1150.75" fill="#000000" font-family="Verdana" font-size="12">CERTIFICATES</text>
	</g>
	<text x="386" y="1057.59" fill="#762a83" font-family="Verdana" font-size="12">1,1</text>
	<text x="534" y="1200" fill="#762a83" font-family="Verdana" font-size="12">0,1</text>
</g>

<!-- Entity NOTE -->
<g>
	<g>
		<rect x="1241" y="9" width="56" height="25" fill="#c2a5cf" stroke="none" stroke-width="0" opacity="1"/>
		<rect x="1241" y="34" width="56" height="25" fill="#e7d4e8" stroke="none" stroke-width="0" opacity="1"/>
		<rect x="1241" y="9" width="56" height="50" fill="none" stroke="#9970ab" stroke-width="2" opacity="1"/>
		<line x1="1241" y1="34" x2="1297" y2="34" stroke="#9970ab" stroke-width="1"/>
	</g>
	<text x="1252" y="26.75" fill="#000000" font-family="Verdana" font-size="12">NOTE</text>
	<text x="1246" y="51.8" fill="#000000" font-family="Verdana" font-size="12">content</text>
	<line x1="1246" y1="54" x2="1292" y2="54" stroke="#000000" stroke-width="1"/>
</g>

<!-- Entity CLAIM -->
<g>
	<g>
		<rect x="489" y="152" width="80" height="25" fill="#c2a5cf" stroke="none" stroke-width="0" opacity="1"/>
		<rect x="489" y="177" width="80" height="59" fill="#e7d4e8" stroke="none" stroke-width="0" opacity="1"/>
		<rect x="489" y="152" width="80" height="84" fill="none" stroke="#9970ab" stroke-width="2" opacity="1"/>
		<line x1="489" y1="177" x2="569" y2="177" stroke="#9970ab" stroke-width="1"/>
	</g>
	<text x="510" y="169.75" fill="#000000" font-family="Verdana" font-size="12">CLAIM</text>
	<text x="494" y="194.8" fill="#000000" font-family="Verdana" font-size="12">reason</text>
	<line x1="494" y1="197" x2="536" y2="197" stroke="#000000" stroke-width="1"/>
	<text x="494" y="211.8" fill="#000000" font-family="Verdana" font-size="12">amount_ht</text>
	<text x="494" y="228.8" fill="#000000" font-family="Verdana" font-size="12">amount_ttc</text>
</g>

<!-- Entity ULTIMATE_CONSIGNEE -->
<g>
	<g>
		<rect x="751" y="84" width="164" height="25" fill="#c2a5cf" stroke="none" stroke-width="0" opacity="1"/>
		<rect x="751" y="109" width="164" height="195" fill="#e7d4e8" stroke="none" stroke-width="0" opacity="1"/>
		<rect x="751" y="84" width="164" height="220" fill="none" stroke="#9970ab" stroke-width="2" opacity="1"/>
		<line x1="751" y1="109" x2="915" y2="109" stroke="#9970ab" stroke-width="1"/>
	</g>
	<text x="761" y="101.75" fill="#000000" font-family="Verdana" font-size="12">ULTIMATE_CONSIGNEE</text>
	<text x="756" y="126.8" fill="#000000" font-family="Verdana" font-size="12">contact_name</text>
	<line x1="756" y1="129" x2="842" y2="129" stroke="#000000" stroke-width="1"/>
	<text x="756" y="143.8" fill="#000000" font-family="Verdana" font-size="12">phone_number</text>
	<text x="756" y="160.8" fill="#000000" font-family="Verdana" font-size="12">email_address</text>
	<text x="756" y="177.8" fill="#000000" font-family="Verdana" font-size="12">siret</text>
	<text x="756" y="194.8" fill="#000000" font-family="Verdana" font-size="12">tva_reference</text>
	<text x="756" y="211.8" fill="#000000" font-family="Verdana" font-size="12">fda_number</text>
	<text x="756" y="228.8" fill="#000000" font-family="Verdana" font-size="12">eori_reference</text>
	<text x="756" y="245.8" fill="#000000" font-family="Verdana" font-size="12">fedex_account_reference</text>
	<text x="756" y="262.8" fill="#000000" font-family="Verdana" font-size="12">tiers_code</text>
	<text x="756" y="279.8" fill="#000000" font-family="Verdana" font-size="12">import_license</text>
	<text x="756" y="296.8" fill="#000000" font-family="Verdana" font-size="12">tax_id</text>
</g>

<!-- Entity EMPLOYEE -->
<g>
	<g>
		<rect x="1069" y="92" width="160" height="25" fill="#c2a5cf" stroke="none" stroke-width="0" opacity="1"/>
		<rect x="1069" y="117" width="160" height="179" fill="#e7d4e8" stroke="none" stroke-width="0" opacity="1"/>
		<rect x="1069" y="92" width="160" height="204" fill="none" stroke="#9970ab" stroke-width="2" opacity="1"/>
		<line x1="1069" y1="117" x2="1229" y2="117" stroke="#9970ab" stroke-width="1"/>
	</g>
	<text x="1117" y="109.75" fill="#000000" font-family="Verdana" font-size="12">EMPLOYEE</text>
	<text x="1074" y="134.8" fill="#000000" font-family="Verdana" font-size="12">email</text>
	<line x1="1074" y1="137" x2="1108" y2="137" stroke="#000000" stroke-width="1"/>
	<text x="1074" y="151.8" fill="#000000" font-family="Verdana" font-size="12">firstname</text>
	<text x="1074" y="168.8" fill="#000000" font-family="Verdana" font-size="12">lastname</text>
	<text x="1074" y="185.8" fill="#000000" font-family="Verdana" font-size="12">password</text>
	<text x="1074" y="202.8" fill="#000000" font-family="Verdana" font-size="12">role</text>
	<text x="1074" y="219.8" fill="#000000" font-family="Verdana" font-size="12">civility</text>
	<text x="1074" y="236.8" fill="#000000" font-family="Verdana" font-size="12">job</text>
	<text x="1074" y="253.8" fill="#000000" font-family="Verdana" font-size="12">language_iso_code</text>
	<text x="1074" y="270.8" fill="#000000" font-family="Verdana" font-size="12">phone_portable_number</text>
	<text x="1074" y="287.8" fill="#000000" font-family="Verdana" font-size="12">phone_fix_number</text>
</g>

<!-- Entity PRIOR_NOTICE -->
<g>
	<g>
		<rect x="272" y="380" width="104" height="25" fill="#c2a5cf" stroke="none" stroke-width="0" opacity="1"/>
		<rect x="272" y="405" width="104" height="9" fill="#e7d4e8" stroke="none" stroke-width="0" opacity="1"/>
		<rect x="272" y="380" width="104" height="34" fill="none" stroke="#9970ab" stroke-width="2" opacity="1"/>
		<line x1="272" y1="405" x2="376" y2="405" stroke="#9970ab" stroke-width="1"/>
	</g>
	<text x="277" y="397.75" fill="#000000" font-family="Verdana" font-size="12">PRIOR_NOTICE</text>
</g>

<!-- Entity EXPORTER -->
<g>
	<g>
		<rect x="941" y="329" width="102" height="25" fill="#c2a5cf" stroke="none" stroke-width="0" opacity="1"/>
		<rect x="941" y="354" width="102" height="111" fill="#e7d4e8" stroke="none" stroke-width="0" opacity="1"/>
		<rect x="941" y="329" width="102" height="136" fill="none" stroke="#9970ab" stroke-width="2" opacity="1"/>
		<line x1="941" y1="354" x2="1043" y2="354" stroke="#9970ab" stroke-width="1"/>
	</g>
	<text x="960" y="346.75" fill="#000000" font-family="Verdana" font-size="12">EXPORTER</text>
	<text x="946" y="371.8" fill="#000000" font-family="Verdana" font-size="12">contact_name</text>
	<line x1="946" y1="374" x2="1032" y2="374" stroke="#000000" stroke-width="1"/>
	<text x="946" y="388.8" fill="#000000" font-family="Verdana" font-size="12">phone_number</text>
	<text x="946" y="405.8" fill="#000000" font-family="Verdana" font-size="12">email_address</text>
	<text x="946" y="422.8" fill="#000000" font-family="Verdana" font-size="12">eori_reference</text>
	<text x="946" y="439.8" fill="#000000" font-family="Verdana" font-size="12">siret</text>
	<text x="946" y="456.8" fill="#000000" font-family="Verdana" font-size="12">tva_reference</text>
</g>

<!-- Entity ORDER -->
<g>
	<g>
		<rect x="458" y="447" width="142" height="25" fill="#c2a5cf" stroke="none" stroke-width="0" opacity="1"/>
		<rect x="458" y="472" width="142" height="315" fill="#e7d4e8" stroke="none" stroke-width="0" opacity="1"/>
		<rect x="458" y="447" width="142" height="340" fill="none" stroke="#9970ab" stroke-width="2" opacity="1"/>
		<line x1="458" y1="472" x2="600" y2="472" stroke="#9970ab" stroke-width="1"/>
	</g>
	<text x="507" y="464.75" fill="#000000" font-family="Verdana" font-size="12">ORDER</text>
	<text x="463" y="489.8" fill="#000000" font-family="Verdana" font-size="12">reference</text>
	<line x1="463" y1="492" x2="521" y2="492" stroke="#000000" stroke-width="1"/>
	<text x="463" y="506.8" fill="#000000" font-family="Verdana" font-size="12">type</text>
	<text x="463" y="523.8" fill="#000000" font-family="Verdana" font-size="12">reason</text>
	<text x="463" y="540.8" fill="#000000" font-family="Verdana" font-size="12">payment_term</text>
	<text x="463" y="557.8" fill="#000000" font-family="Verdana" font-size="12">shipping_type</text>
	<text x="463" y="574.8" fill="#000000" font-family="Verdana" font-size="12">shipping_amount_ht</text>
	<text x="463" y="591.8" fill="#000000" font-family="Verdana" font-size="12">shipping_amount_ttc</text>
	<text x="463" y="608.8" fill="#000000" font-family="Verdana" font-size="12">shipping_tax_amount</text>
	<text x="463" y="625.8" fill="#000000" font-family="Verdana" font-size="12">total_ht</text>
	<text x="463" y="642.8" fill="#000000" font-family="Verdana" font-size="12">total_ttc</text>
	<text x="463" y="659.8" fill="#000000" font-family="Verdana" font-size="12">is_valid</text>
	<text x="463" y="676.8" fill="#000000" font-family="Verdana" font-size="12">is_over</text>
	<text x="463" y="693.8" fill="#000000" font-family="Verdana" font-size="12">commentary</text>
	<text x="463" y="710.8" fill="#000000" font-family="Verdana" font-size="12">delivery_instruction</text>
	<text x="463" y="727.8" fill="#000000" font-family="Verdana" font-size="12">creation_date</text>
	<text x="463" y="744.8" fill="#000000" font-family="Verdana" font-size="12">update_date</text>
	<text x="463" y="761.8" fill="#000000" font-family="Verdana" font-size="12">invoice_date</text>
	<text x="463" y="778.8" fill="#000000" font-family="Verdana" font-size="12">shipping_date</text>
</g>

<!-- Entity ADDRESS -->
<g>
	<g>
		<rect x="798" y="549" width="70" height="25" fill="#c2a5cf" stroke="none" stroke-width="0" opacity="1"/>
		<rect x="798" y="574" width="70" height="111" fill="#e7d4e8" stroke="none" stroke-width="0" opacity="1"/>
		<rect x="798" y="549" width="70" height="136" fill="none" stroke="#9970ab" stroke-width="2" opacity="1"/>
		<line x1="798" y1="574" x2="868" y2="574" stroke="#9970ab" stroke-width="1"/>
	</g>
	<text x="803" y="566.75" fill="#000000" font-family="Verdana" font-size="12">ADDRESS</text>
	<text x="803" y="591.8" fill="#000000" font-family="Verdana" font-size="12">address1</text>
	<line x1="803" y1="594" x2="859" y2="594" stroke="#000000" stroke-width="1"/>
	<text x="803" y="608.8" fill="#000000" font-family="Verdana" font-size="12">address2</text>
	<text x="803" y="625.8" fill="#000000" font-family="Verdana" font-size="12">city</text>
	<text x="803" y="642.8" fill="#000000" font-family="Verdana" font-size="12">zip_code</text>
	<text x="803" y="659.8" fill="#000000" font-family="Verdana" font-size="12">type</text>
	<text x="803" y="676.8" fill="#000000" font-family="Verdana" font-size="12">is_default</text>
</g>

<!-- Entity PACKAGE -->
<g>
	<g>
		<rect x="79" y="701" width="138" height="25" fill="#c2a5cf" stroke="none" stroke-width="0" opacity="1"/>
		<rect x="79" y="726" width="138" height="247" fill="#e7d4e8" stroke="none" stroke-width="0" opacity="1"/>
		<rect x="79" y="701" width="138" height="272" fill="none" stroke="#9970ab" stroke-width="2" opacity="1"/>
		<line x1="79" y1="726" x2="217" y2="726" stroke="#9970ab" stroke-width="1"/>
	</g>
	<text x="119" y="718.75" fill="#000000" font-family="Verdana" font-size="12">PACKAGE</text>
	<text x="84" y="743.8" fill="#000000" font-family="Verdana" font-size="12">quantity</text>
	<line x1="84" y1="746" x2="135" y2="746" stroke="#000000" stroke-width="1"/>
	<text x="84" y="760.8" fill="#000000" font-family="Verdana" font-size="12">type</text>
	<text x="84" y="777.8" fill="#000000" font-family="Verdana" font-size="12">shipping_type</text>
	<text x="84" y="794.8" fill="#000000" font-family="Verdana" font-size="12">product_ht</text>
	<text x="84" y="811.8" fill="#000000" font-family="Verdana" font-size="12">product_ttc</text>
	<text x="84" y="828.8" fill="#000000" font-family="Verdana" font-size="12">product_tax_amount</text>
	<text x="84" y="845.8" fill="#000000" font-family="Verdana" font-size="12">weight</text>
	<text x="84" y="862.8" fill="#000000" font-family="Verdana" font-size="12">width</text>
	<text x="84" y="879.8" fill="#000000" font-family="Verdana" font-size="12">length</text>
	<text x="84" y="896.8" fill="#000000" font-family="Verdana" font-size="12">height</text>
	<text x="84" y="913.8" fill="#000000" font-family="Verdana" font-size="12">tracking_number</text>
	<text x="84" y="930.8" fill="#000000" font-family="Verdana" font-size="12">is_delivered</text>
	<text x="84" y="947.8" fill="#000000" font-family="Verdana" font-size="12">creation_date</text>
	<text x="84" y="964.8" fill="#000000" font-family="Verdana" font-size="12">update_date</text>
</g>

<!-- Entity COUNTRY -->
<g>
	<g>
		<rect x="641" y="803" width="70" height="25" fill="#c2a5cf" stroke="none" stroke-width="0" opacity="1"/>
		<rect x="641" y="828" width="70" height="43" fill="#e7d4e8" stroke="none" stroke-width="0" opacity="1"/>
		<rect x="641" y="803" width="70" height="68" fill="none" stroke="#9970ab" stroke-width="2" opacity="1"/>
		<line x1="641" y1="828" x2="711" y2="828" stroke="#9970ab" stroke-width="1"/>
	</g>
	<text x="646" y="820.75" fill="#000000" font-family="Verdana" font-size="12">COUNTRY</text>
	<text x="646" y="845.8" fill="#000000" font-family="Verdana" font-size="12">iso_code</text>
	<line x1="646" y1="848" x2="700" y2="848" stroke="#000000" stroke-width="1"/>
	<text x="646" y="862.8" fill="#000000" font-family="Verdana" font-size="12">name</text>
</g>

<!-- Entity PRODUCT -->
<g>
	<g>
		<rect x="267" y="938" width="114" height="25" fill="#c2a5cf" stroke="none" stroke-width="0" opacity="1"/>
		<rect x="267" y="963" width="114" height="145" fill="#e7d4e8" stroke="none" stroke-width="0" opacity="1"/>
		<rect x="267" y="938" width="114" height="170" fill="none" stroke="#9970ab" stroke-width="2" opacity="1"/>
		<line x1="267" y1="963" x2="381" y2="963" stroke="#9970ab" stroke-width="1"/>
	</g>
	<text x="294" y="955.75" fill="#000000" font-family="Verdana" font-size="12">PRODUCT</text>
	<text x="272" y="980.8" fill="#000000" font-family="Verdana" font-size="12">type</text>
	<line x1="272" y1="983" x2="300" y2="983" stroke="#000000" stroke-width="1"/>
	<text x="272" y="997.8" fill="#000000" font-family="Verdana" font-size="12">primary_name</text>
	<text x="272" y="1014.8" fill="#000000" font-family="Verdana" font-size="12">secondary_name</text>
	<text x="272" y="1031.8" fill="#000000" font-family="Verdana" font-size="12">alcool_degree</text>
	<text x="272" y="1048.8" fill="#000000" font-family="Verdana" font-size="12">price_ht</text>
	<text x="272" y="1065.8" fill="#000000" font-family="Verdana" font-size="12">price_ttc</text>
	<text x="272" y="1082.8" fill="#000000" font-family="Verdana" font-size="12">tax_amount</text>
	<text x="272" y="1099.8" fill="#000000" font-family="Verdana" font-size="12">weight</text>
</g>

<!-- Entity TRANSACTION -->
<g>
	<g>
		<rect x="473" y="964" width="112" height="25" fill="#c2a5cf" stroke="none" stroke-width="0" opacity="1"/>
		<rect x="473" y="989" width="112" height="93" fill="#e7d4e8" stroke="none" stroke-width="0" opacity="1"/>
		<rect x="473" y="964" width="112" height="118" fill="none" stroke="#9970ab" stroke-width="2" opacity="1"/>
		<line x1="473" y1="989" x2="585" y2="989" stroke="#9970ab" stroke-width="1"/>
	</g>
	<text x="484" y="981.75" fill="#000000" font-family="Verdana" font-size="12">TRANSACTION</text>
	<text x="478" y="1006.8" fill="#000000" font-family="Verdana" font-size="12">account_number</text>
	<line x1="478" y1="1009" x2="580" y2="1009" stroke="#000000" stroke-width="1"/>
	<text x="478" y="1023.8" fill="#000000" font-family="Verdana" font-size="12">type</text>
	<text x="478" y="1040.8" fill="#000000" font-family="Verdana" font-size="12">amount_ht</text>
	<text x="478" y="1057.8" fill="#000000" font-family="Verdana" font-size="12">amount_ttc</text>
	<text x="478" y="1074.8" fill="#000000" font-family="Verdana" font-size="12">date</text>
</g>

<!-- Entity RECIPIENT -->
<g>
	<g>
		<rect x="782" y="964" width="102" height="25" fill="#c2a5cf" stroke="none" stroke-width="0" opacity="1"/>
		<rect x="782" y="989" width="102" height="93" fill="#e7d4e8" stroke="none" stroke-width="0" opacity="1"/>
		<rect x="782" y="964" width="102" height="118" fill="none" stroke="#9970ab" stroke-width="2" opacity="1"/>
		<line x1="782" y1="989" x2="884" y2="989" stroke="#9970ab" stroke-width="1"/>
	</g>
	<text x="800" y="981.75" fill="#000000" font-family="Verdana" font-size="12">RECIPIENT</text>
	<text x="787" y="1006.8" fill="#000000" font-family="Verdana" font-size="12">contact_name</text>
	<line x1="787" y1="1009" x2="873" y2="1009" stroke="#000000" stroke-width="1"/>
	<text x="787" y="1023.8" fill="#000000" font-family="Verdana" font-size="12">phone_number</text>
	<text x="787" y="1040.8" fill="#000000" font-family="Verdana" font-size="12">email_address</text>
	<text x="787" y="1057.8" fill="#000000" font-family="Verdana" font-size="12">siret</text>
	<text x="787" y="1074.8" fill="#000000" font-family="Verdana" font-size="12">tva_reference</text>
</g>

<!-- Entity PRODUCT_TYPE -->
<g>
	<g>
		<rect x="73" y="1352" width="150" height="25" fill="#c2a5cf" stroke="none" stroke-width="0" opacity="1"/>
		<rect x="73" y="1377" width="150" height="43" fill="#e7d4e8" stroke="none" stroke-width="0" opacity="1"/>
		<rect x="73" y="1352" width="150" height="68" fill="none" stroke="#9970ab" stroke-width="2" opacity="1"/>
		<line x1="73" y1="1377" x2="223" y2="1377" stroke="#9970ab" stroke-width="1"/>
	</g>
	<text x="100" y="1369.75" fill="#000000" font-family="Verdana" font-size="12">PRODUCT_TYPE</text>
	<text x="78" y="1394.8" fill="#000000" font-family="Verdana" font-size="12">name</text>
	<line x1="78" y1="1397" x2="113" y2="1397" stroke="#000000" stroke-width="1"/>
	<text x="78" y="1411.8" fill="#000000" font-family="Verdana" font-size="12">is_certification_needed</text>
</g>

<!-- Entity PRODUCT_CAPACITY -->
<g>
	<g>
		<rect x="255" y="1352" width="138" height="25" fill="#c2a5cf" stroke="none" stroke-width="0" opacity="1"/>
		<rect x="255" y="1377" width="138" height="43" fill="#e7d4e8" stroke="none" stroke-width="0" opacity="1"/>
		<rect x="255" y="1352" width="138" height="68" fill="none" stroke="#9970ab" stroke-width="2" opacity="1"/>
		<line x1="255" y1="1377" x2="393" y2="1377" stroke="#9970ab" stroke-width="1"/>
	</g>
	<text x="260" y="1369.75" fill="#000000" font-family="Verdana" font-size="12">PRODUCT_CAPACITY</text>
	<text x="260" y="1394.8" fill="#000000" font-family="Verdana" font-size="12">name</text>
	<line x1="260" y1="1397" x2="295" y2="1397" stroke="#000000" stroke-width="1"/>
	<text x="260" y="1411.8" fill="#000000" font-family="Verdana" font-size="12">value</text>
</g>

<!-- Entity COLA -->
<g>
	<g>
		<rect x="425" y="1208" width="208" height="25" fill="#c2a5cf" stroke="none" stroke-width="0" opacity="1"/>
		<rect x="425" y="1233" width="208" height="331" fill="#e7d4e8" stroke="none" stroke-width="0" opacity="1"/>
		<rect x="425" y="1208" width="208" height="356" fill="none" stroke="#9970ab" stroke-width="2" opacity="1"/>
		<line x1="425" y1="1233" x2="633" y2="1233" stroke="#9970ab" stroke-width="1"/>
	</g>
	<text x="512" y="1225.75" fill="#000000" font-family="Verdana" font-size="12">COLA</text>
	<text x="430" y="1250.8" fill="#000000" font-family="Verdana" font-size="12">registry_number</text>
	<line x1="430" y1="1253" x2="532" y2="1253" stroke="#000000" stroke-width="1"/>
	<text x="430" y="1267.8" fill="#000000" font-family="Verdana" font-size="12">product_source</text>
	<text x="430" y="1284.8" fill="#000000" font-family="Verdana" font-size="12">serial_number</text>
	<text x="430" y="1301.8" fill="#000000" font-family="Verdana" font-size="12">product_type</text>
	<text x="430" y="1318.8" fill="#000000" font-family="Verdana" font-size="12">brand_name</text>
	<text x="430" y="1335.8" fill="#000000" font-family="Verdana" font-size="12">fanciful_name</text>
	<text x="430" y="1352.8" fill="#000000" font-family="Verdana" font-size="12">ultimate_consignee_address</text>
	<text x="430" y="1369.8" fill="#000000" font-family="Verdana" font-size="12">formula</text>
	<text x="430" y="1386.8" fill="#000000" font-family="Verdana" font-size="12">grape_varietal</text>
	<text x="430" y="1403.8" fill="#000000" font-family="Verdana" font-size="12">wine_appellation</text>
	<text x="430" y="1420.8" fill="#000000" font-family="Verdana" font-size="12">phone_number</text>
	<text x="430" y="1437.8" fill="#000000" font-family="Verdana" font-size="12">email_address</text>
	<text x="430" y="1454.8" fill="#000000" font-family="Verdana" font-size="12">application_type</text>
	<text x="430" y="1471.8" fill="#000000" font-family="Verdana" font-size="12">product_image</text>
	<text x="430" y="1488.8" fill="#000000" font-family="Verdana" font-size="12">certification_application_date</text>
	<text x="430" y="1505.8" fill="#000000" font-family="Verdana" font-size="12">certification_applicant_signature</text>
	<text x="430" y="1522.8" fill="#000000" font-family="Verdana" font-size="12">certification_applicant_name</text>
	<text x="430" y="1539.8" fill="#000000" font-family="Verdana" font-size="12">ttb_certification_date</text>
	<text x="430" y="1556.8" fill="#000000" font-family="Verdana" font-size="12">ttb_certification_signature</text>
</g>
</svg>