<?xml version="1.0" encoding="utf-8"?>
<!-- Generated by Mocodo 4.2.8 -->
<svg width="947" height="940" viewBox="0 0 947 940" xmlns="http://www.w3.org/2000/svg">
<rect x="0" y="0" width="947" height="940" fill="#f7f7f7" stroke="none" stroke-width="0"/>

<!-- Association IS_FOLLOWED_BY -->
<g>
	<line x1="89" y1="51" x2="261" y2="51" stroke="#7fbc41" stroke-width="2"/>
	<line x1="261" y1="262" x2="261" y2="51" stroke="#7fbc41" stroke-width="2"/>
	<g>
		<path d="M307 26 a14 14 90 0 1 14 14 V51 h-120 V40 a14 14 90 0 1 14 -14" fill="#b8e186" stroke="#b8e186" stroke-width="0"/>
		<path d="M321 51 v11 a14 14 90 0 1 -14 14 H215 a14 14 90 0 1 -14 -14 V51 H120" fill="#e6f5d0" stroke="#e6f5d0" stroke-width="0"/>
		<rect x="201" y="26" width="120" height="50" fill="none" rx="14" stroke="#7fbc41" stroke-width="2"/>
		<line x1="201" y1="51" x2="321" y2="51" stroke="#7fbc41" stroke-width="1"/>
		<text x="208" y="43.75" fill="#000000" font-family="Verdana" font-size="12">IS FOLLOWED BY</text>
	</g>
	<text x="146" y="68" fill="#c51b7d" font-family="Verdana" font-size="12">0,1</text>
	<text x="235" y="127" fill="#c51b7d" font-family="Verdana" font-size="12">1,1</text>
</g>

<!-- Association CAN_FOLLOW -->
<g>
	<line x1="261" y1="262" x2="410" y2="51" stroke="#7fbc41" stroke-width="2"/>
	<line x1="553" y1="51" x2="410" y2="51" stroke="#7fbc41" stroke-width="2"/>
	<g>
		<path d="M444 26 a14 14 90 0 1 14 14 V51 h-96 V40 a14 14 90 0 1 14 -14" fill="#b8e186" stroke="#b8e186" stroke-width="0"/>
		<path d="M458 51 v11 a14 14 90 0 1 -14 14 H376 a14 14 90 0 1 -14 -14 V51 H96" fill="#e6f5d0" stroke="#e6f5d0" stroke-width="0"/>
		<rect x="362" y="26" width="96" height="50" fill="none" rx="14" stroke="#7fbc41" stroke-width="2"/>
		<line x1="362" y1="51" x2="458" y2="51" stroke="#7fbc41" stroke-width="1"/>
		<text x="369" y="43.75" fill="#000000" font-family="Verdana" font-size="12">CAN FOLLOW</text>
	</g>
	<text x="337" y="173.08" fill="#c51b7d" font-family="Verdana" font-size="12">1,1</text>
	<text x="486" y="68" fill="#c51b7d" font-family="Verdana" font-size="12">0,N</text>
</g>

<!-- Association IS_DESCRIBED_BY -->
<g>
	<line x1="700" y1="51" x2="869" y2="51" stroke="#7fbc41" stroke-width="2"/>
	<line x1="869" y1="262" x2="869" y2="51" stroke="#7fbc41" stroke-width="2"/>
	<g>
		<path d="M917 26 a14 14 90 0 1 14 14 V51 h-124 V40 a14 14 90 0 1 14 -14" fill="#b8e186" stroke="#b8e186" stroke-width="0"/>
		<path d="M931 51 v11 a14 14 90 0 1 -14 14 H821 a14 14 90 0 1 -14 -14 V51 H124" fill="#e6f5d0" stroke="#e6f5d0" stroke-width="0"/>
		<rect x="807" y="26" width="124" height="50" fill="none" rx="14" stroke="#7fbc41" stroke-width="2"/>
		<line x1="807" y1="51" x2="931" y2="51" stroke="#7fbc41" stroke-width="1"/>
		<text x="814" y="43.75" fill="#000000" font-family="Verdana" font-size="12">IS DESCRIBED BY</text>
	</g>
	<text x="780" y="68" fill="#c51b7d" font-family="Verdana" font-size="12">1,1</text>
	<text x="874" y="169" fill="#c51b7d" font-family="Verdana" font-size="12">0,N</text>
</g>

<!-- Association PAYS -->
<g>
	<line x1="261" y1="262" x2="89" y2="262" stroke="#7fbc41" stroke-width="2"/>
	<line x1="89" y1="482" x2="89" y2="262" stroke="#7fbc41" stroke-width="2"/>
	<g>
		<path d="M98 237 a14 14 90 0 1 14 14 V262 h-46 V251 a14 14 90 0 1 14 -14" fill="#b8e186" stroke="#b8e186" stroke-width="0"/>
		<path d="M112 262 v11 a14 14 90 0 1 -14 14 H80 a14 14 90 0 1 -14 -14 V262 H46" fill="#e6f5d0" stroke="#e6f5d0" stroke-width="0"/>
		<rect x="66" y="237" width="46" height="50" fill="none" rx="14" stroke="#7fbc41" stroke-width="2"/>
		<line x1="66" y1="262" x2="112" y2="262" stroke="#7fbc41" stroke-width="1"/>
		<text x="73" y="254.75" fill="#000000" font-family="Verdana" font-size="12">PAYS</text>
	</g>
	<text x="163" y="279" fill="#c51b7d" font-family="Verdana" font-size="12">1,N</text>
	<text x="94" y="415" fill="#c51b7d" font-family="Verdana" font-size="12">1,N</text>
</g>

<!-- Association COMPOSES1 -->
<g>
	<line x1="261" y1="262" x2="410" y2="262" stroke="#7fbc41" stroke-width="2"/>
	<line x1="553" y1="262" x2="410" y2="262" stroke="#7fbc41" stroke-width="2"/>
	<g>
		<path d="M438 237 a14 14 90 0 1 14 14 V262 h-84 V251 a14 14 90 0 1 14 -14" fill="#b8e186" stroke="#b8e186" stroke-width="0"/>
		<path d="M452 262 v11 a14 14 90 0 1 -14 14 H382 a14 14 90 0 1 -14 -14 V262 H84" fill="#e6f5d0" stroke="#e6f5d0" stroke-width="0"/>
		<rect x="368" y="237" width="84" height="50" fill="none" rx="14" stroke="#7fbc41" stroke-width="2"/>
		<line x1="368" y1="262" x2="452" y2="262" stroke="#7fbc41" stroke-width="1"/>
		<text x="375" y="254.75" fill="#000000" font-family="Verdana" font-size="12">COMPOSES</text>
	</g>
	<text x="337" y="279" fill="#c51b7d" font-family="Verdana" font-size="12">1,1</text>
	<text x="457" y="279" fill="#c51b7d" font-family="Verdana" font-size="12">1,N</text>
</g>

<!-- Association CONTAINS -->
<g>
	<line x1="869" y1="262" x2="700" y2="262" stroke="#7fbc41" stroke-width="2"/>
	<line x1="553" y1="262" x2="700" y2="262" stroke="#7fbc41" stroke-width="2"/>
	<g>
		<path d="M726 237 a14 14 90 0 1 14 14 V262 h-80 V251 a14 14 90 0 1 14 -14" fill="#b8e186" stroke="#b8e186" stroke-width="0"/>
		<path d="M740 262 v11 a14 14 90 0 1 -14 14 H674 a14 14 90 0 1 -14 -14 V262 H80" fill="#e6f5d0" stroke="#e6f5d0" stroke-width="0"/>
		<rect x="660" y="237" width="80" height="50" fill="none" rx="14" stroke="#7fbc41" stroke-width="2"/>
		<line x1="660" y1="262" x2="740" y2="262" stroke="#7fbc41" stroke-width="1"/>
		<text x="667" y="254.75" fill="#000000" font-family="Verdana" font-size="12">CONTAINS</text>
	</g>
	<text x="785" y="254" fill="#c51b7d" font-family="Verdana" font-size="12">1,N</text>
	<text x="627" y="279" fill="#c51b7d" font-family="Verdana" font-size="12">1,N</text>
</g>

<!-- Association IS_SENT_BY -->
<g>
	<line x1="261" y1="617" x2="261" y2="482" stroke="#7fbc41" stroke-width="2"/>
	<line x1="261" y1="262" x2="261" y2="482" stroke="#7fbc41" stroke-width="2"/>
	<g>
		<path d="M290 457 a14 14 90 0 1 14 14 V482 h-86 V471 a14 14 90 0 1 14 -14" fill="#b8e186" stroke="#b8e186" stroke-width="0"/>
		<path d="M304 482 v11 a14 14 90 0 1 -14 14 H232 a14 14 90 0 1 -14 -14 V482 H86" fill="#e6f5d0" stroke="#e6f5d0" stroke-width="0"/>
		<rect x="218" y="457" width="86" height="50" fill="none" rx="14" stroke="#7fbc41" stroke-width="2"/>
		<line x1="218" y1="482" x2="304" y2="482" stroke="#7fbc41" stroke-width="1"/>
		<text x="226" y="474.75" fill="#000000" font-family="Verdana" font-size="12">IS SENT BY</text>
	</g>
	<text x="266" y="524" fill="#c51b7d" font-family="Verdana" font-size="12">1,1</text>
	<text x="234" y="406" fill="#c51b7d" font-family="Verdana" font-size="12">0,N</text>
</g>

<!-- Association IS_RECEIVED_BY -->
<g>
	<line x1="553" y1="482" x2="410" y2="482" stroke="#7fbc41" stroke-width="2"/>
	<line x1="261" y1="262" x2="410" y2="482" stroke="#7fbc41" stroke-width="2"/>
	<g>
		<path d="M453 457 a14 14 90 0 1 14 14 V482 h-114 V471 a14 14 90 0 1 14 -14" fill="#b8e186" stroke="#b8e186" stroke-width="0"/>
		<path d="M467 482 v11 a14 14 90 0 1 -14 14 H367 a14 14 90 0 1 -14 -14 V482 H114" fill="#e6f5d0" stroke="#e6f5d0" stroke-width="0"/>
		<rect x="353" y="457" width="114" height="50" fill="none" rx="14" stroke="#7fbc41" stroke-width="2"/>
		<line x1="353" y1="482" x2="467" y2="482" stroke="#7fbc41" stroke-width="1"/>
		<text x="360" y="474.75" fill="#000000" font-family="Verdana" font-size="12">IS RECEIVED BY</text>
	</g>
	<text x="485" y="499" fill="#c51b7d" font-family="Verdana" font-size="12">1,1</text>
	<text x="337" y="364.01" fill="#c51b7d" font-family="Verdana" font-size="12">0,N</text>
</g>

<!-- Association IS_CLASSIFIED_BY -->
<g>
	<line x1="700" y1="617" x2="700" y2="482" stroke="#7fbc41" stroke-width="2"/>
	<line x1="869" y1="262" x2="700" y2="482" stroke="#7fbc41" stroke-width="2"/>
	<g>
		<path d="M749 457 a14 14 90 0 1 14 14 V482 h-126 V471 a14 14 90 0 1 14 -14" fill="#b8e186" stroke="#b8e186" stroke-width="0"/>
		<path d="M763 482 v11 a14 14 90 0 1 -14 14 H651 a14 14 90 0 1 -14 -14 V482 H126" fill="#e6f5d0" stroke="#e6f5d0" stroke-width="0"/>
		<rect x="637" y="457" width="126" height="50" fill="none" rx="14" stroke="#7fbc41" stroke-width="2"/>
		<line x1="637" y1="482" x2="763" y2="482" stroke="#7fbc41" stroke-width="1"/>
		<text x="644" y="474.75" fill="#000000" font-family="Verdana" font-size="12">IS CLASSIFIED BY</text>
	</g>
	<text x="705" y="592" fill="#c51b7d" font-family="Verdana" font-size="12">1,1</text>
	<text x="785" y="333.97" fill="#c51b7d" font-family="Verdana" font-size="12">0,N</text>
</g>

<!-- Association IS_DEFINED_BY -->
<g>
	<line x1="869" y1="617" x2="869" y2="482" stroke="#7fbc41" stroke-width="2"/>
	<line x1="869" y1="262" x2="869" y2="482" stroke="#7fbc41" stroke-width="2"/>
	<g>
		<path d="M909 457 a14 14 90 0 1 14 14 V482 h-108 V471 a14 14 90 0 1 14 -14" fill="#b8e186" stroke="#b8e186" stroke-width="0"/>
		<path d="M923 482 v11 a14 14 90 0 1 -14 14 H829 a14 14 90 0 1 -14 -14 V482 H108" fill="#e6f5d0" stroke="#e6f5d0" stroke-width="0"/>
		<rect x="815" y="457" width="108" height="50" fill="none" rx="14" stroke="#7fbc41" stroke-width="2"/>
		<line x1="815" y1="482" x2="923" y2="482" stroke="#7fbc41" stroke-width="1"/>
		<text x="823" y="474.75" fill="#000000" font-family="Verdana" font-size="12">IS DEFINED BY</text>
	</g>
	<text x="874" y="575" fill="#c51b7d" font-family="Verdana" font-size="12">1,1</text>
	<text x="874" y="364" fill="#c51b7d" font-family="Verdana" font-size="12">0,N</text>
</g>

<!-- Association WORKS_FOR -->
<g>
	<line x1="261" y1="617" x2="89" y2="617" stroke="#7fbc41" stroke-width="2"/>
	<line x1="89" y1="829" x2="89" y2="617" stroke="#7fbc41" stroke-width="2"/>
	<g>
		<path d="M120 592 a14 14 90 0 1 14 14 V617 h-90 V606 a14 14 90 0 1 14 -14" fill="#b8e186" stroke="#b8e186" stroke-width="0"/>
		<path d="M134 617 v11 a14 14 90 0 1 -14 14 H58 a14 14 90 0 1 -14 -14 V617 H90" fill="#e6f5d0" stroke="#e6f5d0" stroke-width="0"/>
		<rect x="44" y="592" width="90" height="50" fill="none" rx="14" stroke="#7fbc41" stroke-width="2"/>
		<line x1="44" y1="617" x2="134" y2="617" stroke="#7fbc41" stroke-width="1"/>
		<text x="51" y="609.75" fill="#000000" font-family="Verdana" font-size="12">WORKS FOR</text>
	</g>
	<text x="153" y="634" fill="#c51b7d" font-family="Verdana" font-size="12">0,1</text>
	<text x="94" y="719" fill="#c51b7d" font-family="Verdana" font-size="12">0,N</text>
</g>

<!-- Association LIVES_IN1 -->
<g>
	<line x1="553" y1="829" x2="410" y2="617" stroke="#7fbc41" stroke-width="2"/>
	<line x1="261" y1="617" x2="410" y2="617" stroke="#7fbc41" stroke-width="2"/>
	<g>
		<path d="M431 592 a14 14 90 0 1 14 14 V617 h-70 V606 a14 14 90 0 1 14 -14" fill="#b8e186" stroke="#b8e186" stroke-width="0"/>
		<path d="M445 617 v11 a14 14 90 0 1 -14 14 H389 a14 14 90 0 1 -14 -14 V617 H70" fill="#e6f5d0" stroke="#e6f5d0" stroke-width="0"/>
		<rect x="375" y="592" width="70" height="50" fill="none" rx="14" stroke="#7fbc41" stroke-width="2"/>
		<line x1="375" y1="617" x2="445" y2="617" stroke="#7fbc41" stroke-width="1"/>
		<text x="383" y="609.75" fill="#000000" font-family="Verdana" font-size="12">LIVES IN</text>
	</g>
	<text x="492" y="788.95" fill="#c51b7d" font-family="Verdana" font-size="12">1,1</text>
	<text x="348" y="634" fill="#c51b7d" font-family="Verdana" font-size="12">1,1</text>
</g>

<!-- Association LIVES_IN2 -->
<g>
	<line x1="553" y1="829" x2="553" y2="617" stroke="#7fbc41" stroke-width="2"/>
	<line x1="553" y1="482" x2="553" y2="617" stroke="#7fbc41" stroke-width="2"/>
	<g>
		<path d="M574 592 a14 14 90 0 1 14 14 V617 h-70 V606 a14 14 90 0 1 14 -14" fill="#b8e186" stroke="#b8e186" stroke-width="0"/>
		<path d="M588 617 v11 a14 14 90 0 1 -14 14 H532 a14 14 90 0 1 -14 -14 V617 H70" fill="#e6f5d0" stroke="#e6f5d0" stroke-width="0"/>
		<rect x="518" y="592" width="70" height="50" fill="none" rx="14" stroke="#7fbc41" stroke-width="2"/>
		<line x1="518" y1="617" x2="588" y2="617" stroke="#7fbc41" stroke-width="1"/>
		<text x="526" y="609.75" fill="#000000" font-family="Verdana" font-size="12">LIVES IN</text>
	</g>
	<text x="558" y="753" fill="#c51b7d" font-family="Verdana" font-size="12">1,1</text>
	<text x="558" y="550" fill="#c51b7d" font-family="Verdana" font-size="12">1,1</text>
</g>

<!-- Association IS_ATTACHED_TO -->
<g>
	<line x1="89" y1="829" x2="261" y2="829" stroke="#7fbc41" stroke-width="2"/>
	<line x1="410" y1="829" x2="261" y2="829" stroke="#7fbc41" stroke-width="2"/>
	<g>
		<path d="M307 804 a14 14 90 0 1 14 14 V829 h-120 V818 a14 14 90 0 1 14 -14" fill="#b8e186" stroke="#b8e186" stroke-width="0"/>
		<path d="M321 829 v11 a14 14 90 0 1 -14 14 H215 a14 14 90 0 1 -14 -14 V829 H120" fill="#e6f5d0" stroke="#e6f5d0" stroke-width="0"/>
		<rect x="201" y="804" width="120" height="50" fill="none" rx="14" stroke="#7fbc41" stroke-width="2"/>
		<line x1="201" y1="829" x2="321" y2="829" stroke="#7fbc41" stroke-width="1"/>
		<text x="209" y="821.75" fill="#000000" font-family="Verdana" font-size="12">IS ATTACHED TO</text>
	</g>
	<text x="174" y="846" fill="#c51b7d" font-family="Verdana" font-size="12">1,1</text>
	<text x="356" y="846" fill="#c51b7d" font-family="Verdana" font-size="12">0,1</text>
</g>

<!-- Association RESIDES_IN -->
<g>
	<line x1="869" y1="829" x2="700" y2="829" stroke="#7fbc41" stroke-width="2"/>
	<line x1="553" y1="829" x2="700" y2="829" stroke="#7fbc41" stroke-width="2"/>
	<g>
		<path d="M730 804 a14 14 90 0 1 14 14 V829 h-88 V818 a14 14 90 0 1 14 -14" fill="#b8e186" stroke="#b8e186" stroke-width="0"/>
		<path d="M744 829 v11 a14 14 90 0 1 -14 14 H670 a14 14 90 0 1 -14 -14 V829 H88" fill="#e6f5d0" stroke="#e6f5d0" stroke-width="0"/>
		<rect x="656" y="804" width="88" height="50" fill="none" rx="14" stroke="#7fbc41" stroke-width="2"/>
		<line x1="656" y1="829" x2="744" y2="829" stroke="#7fbc41" stroke-width="1"/>
		<text x="663" y="821.75" fill="#000000" font-family="Verdana" font-size="12">RESIDES IN</text>
	</g>
	<text x="808" y="846" fill="#c51b7d" font-family="Verdana" font-size="12">1,1</text>
	<text x="593" y="846" fill="#c51b7d" font-family="Verdana" font-size="12">0,N</text>
</g>

<!-- Entity PRIOR_NOTICE -->
<g>
	<g>
		<rect x="37" y="34" width="104" height="25" fill="#f1b6da" stroke="none" stroke-width="0" opacity="1"/>
		<rect x="37" y="59" width="104" height="9" fill="#fde0ef" stroke="none" stroke-width="0" opacity="1"/>
		<rect x="37" y="34" width="104" height="34" fill="none" stroke="#de77ae" stroke-width="2" opacity="1"/>
		<line x1="37" y1="59" x2="141" y2="59" stroke="#de77ae" stroke-width="1"/>
	</g>
	<text x="42" y="51.75" fill="#000000" font-family="Verdana" font-size="12">PRIOR_NOTICE</text>
</g>

<!-- Entity CLAIM -->
<g>
	<g>
		<rect x="513" y="9" width="80" height="25" fill="#f1b6da" stroke="none" stroke-width="0" opacity="1"/>
		<rect x="513" y="34" width="80" height="59" fill="#fde0ef" stroke="none" stroke-width="0" opacity="1"/>
		<rect x="513" y="9" width="80" height="84" fill="none" stroke="#de77ae" stroke-width="2" opacity="1"/>
		<line x1="513" y1="34" x2="593" y2="34" stroke="#de77ae" stroke-width="1"/>
	</g>
	<text x="534" y="26.75" fill="#000000" font-family="Verdana" font-size="12">CLAIM</text>
	<text x="518" y="51.8" fill="#000000" font-family="Verdana" font-size="12">reason</text>
	<line x1="518" y1="54" x2="560" y2="54" stroke="#000000" stroke-width="1"/>
	<text x="518" y="68.8" fill="#000000" font-family="Verdana" font-size="12">amount_ht</text>
	<text x="518" y="85.8" fill="#000000" font-family="Verdana" font-size="12">amount_ttc</text>
</g>

<!-- Entity PRODUCT_TYPE -->
<g>
	<g>
		<rect x="625" y="17" width="150" height="25" fill="#f1b6da" stroke="none" stroke-width="0" opacity="1"/>
		<rect x="625" y="42" width="150" height="43" fill="#fde0ef" stroke="none" stroke-width="0" opacity="1"/>
		<rect x="625" y="17" width="150" height="68" fill="none" stroke="#de77ae" stroke-width="2" opacity="1"/>
		<line x1="625" y1="42" x2="775" y2="42" stroke="#de77ae" stroke-width="1"/>
	</g>
	<text x="652" y="34.75" fill="#000000" font-family="Verdana" font-size="12">PRODUCT_TYPE</text>
	<text x="630" y="59.8" fill="#000000" font-family="Verdana" font-size="12">name</text>
	<line x1="630" y1="62" x2="665" y2="62" stroke="#000000" stroke-width="1"/>
	<text x="630" y="76.8" fill="#000000" font-family="Verdana" font-size="12">is_certification_needed</text>
</g>

<!-- Entity ORDER -->
<g>
	<g>
		<rect x="190" y="135" width="142" height="25" fill="#f1b6da" stroke="none" stroke-width="0" opacity="1"/>
		<rect x="190" y="160" width="142" height="229" fill="#fde0ef" stroke="none" stroke-width="0" opacity="1"/>
		<rect x="190" y="135" width="142" height="254" fill="none" stroke="#de77ae" stroke-width="2" opacity="1"/>
		<line x1="190" y1="160" x2="332" y2="160" stroke="#de77ae" stroke-width="1"/>
	</g>
	<text x="239" y="152.75" fill="#000000" font-family="Verdana" font-size="12">ORDER</text>
	<text x="195" y="177.8" fill="#000000" font-family="Verdana" font-size="12">reference</text>
	<line x1="195" y1="180" x2="253" y2="180" stroke="#000000" stroke-width="1"/>
	<text x="195" y="194.8" fill="#000000" font-family="Verdana" font-size="12">type</text>
	<text x="195" y="211.8" fill="#000000" font-family="Verdana" font-size="12">shipping_type</text>
	<text x="195" y="228.8" fill="#000000" font-family="Verdana" font-size="12">shipping_amount_ht</text>
	<text x="195" y="245.8" fill="#000000" font-family="Verdana" font-size="12">shipping_amount_ttc</text>
	<text x="195" y="262.8" fill="#000000" font-family="Verdana" font-size="12">shipping_tax_amount</text>
	<text x="195" y="279.8" fill="#000000" font-family="Verdana" font-size="12">total_ht</text>
	<text x="195" y="296.8" fill="#000000" font-family="Verdana" font-size="12">total_ttc</text>
	<text x="195" y="313.8" fill="#000000" font-family="Verdana" font-size="12">is_valid</text>
	<text x="195" y="330.8" fill="#000000" font-family="Verdana" font-size="12">is_over</text>
	<text x="195" y="347.8" fill="#000000" font-family="Verdana" font-size="12">commentary</text>
	<text x="195" y="364.8" fill="#000000" font-family="Verdana" font-size="12">creation_date</text>
	<text x="195" y="381.8" fill="#000000" font-family="Verdana" font-size="12">update_date</text>
</g>

<!-- Entity PACKAGE -->
<g>
	<g>
		<rect x="484" y="118" width="138" height="25" fill="#f1b6da" stroke="none" stroke-width="0" opacity="1"/>
		<rect x="484" y="143" width="138" height="263" fill="#fde0ef" stroke="none" stroke-width="0" opacity="1"/>
		<rect x="484" y="118" width="138" height="288" fill="none" stroke="#de77ae" stroke-width="2" opacity="1"/>
		<line x1="484" y1="143" x2="622" y2="143" stroke="#de77ae" stroke-width="1"/>
	</g>
	<text x="524" y="135.75" fill="#000000" font-family="Verdana" font-size="12">PACKAGE</text>
	<text x="489" y="160.8" fill="#000000" font-family="Verdana" font-size="12">quantity</text>
	<line x1="489" y1="163" x2="540" y2="163" stroke="#000000" stroke-width="1"/>
	<text x="489" y="177.8" fill="#000000" font-family="Verdana" font-size="12">type</text>
	<text x="489" y="194.8" fill="#000000" font-family="Verdana" font-size="12">shipping_type</text>
	<text x="489" y="211.8" fill="#000000" font-family="Verdana" font-size="12">reason</text>
	<text x="489" y="228.8" fill="#000000" font-family="Verdana" font-size="12">product_ht</text>
	<text x="489" y="245.8" fill="#000000" font-family="Verdana" font-size="12">product_ttc</text>
	<text x="489" y="262.8" fill="#000000" font-family="Verdana" font-size="12">product_tax_amount</text>
	<text x="489" y="279.8" fill="#000000" font-family="Verdana" font-size="12">weight</text>
	<text x="489" y="296.8" fill="#000000" font-family="Verdana" font-size="12">width</text>
	<text x="489" y="313.8" fill="#000000" font-family="Verdana" font-size="12">length</text>
	<text x="489" y="330.8" fill="#000000" font-family="Verdana" font-size="12">height</text>
	<text x="489" y="347.8" fill="#000000" font-family="Verdana" font-size="12">tracking_number</text>
	<text x="489" y="364.8" fill="#000000" font-family="Verdana" font-size="12">is_delivered</text>
	<text x="489" y="381.8" fill="#000000" font-family="Verdana" font-size="12">creation_date</text>
	<text x="489" y="398.8" fill="#000000" font-family="Verdana" font-size="12">update_date</text>
</g>

<!-- Entity PRODUCT -->
<g>
	<g>
		<rect x="812" y="177" width="114" height="25" fill="#f1b6da" stroke="none" stroke-width="0" opacity="1"/>
		<rect x="812" y="202" width="114" height="145" fill="#fde0ef" stroke="none" stroke-width="0" opacity="1"/>
		<rect x="812" y="177" width="114" height="170" fill="none" stroke="#de77ae" stroke-width="2" opacity="1"/>
		<line x1="812" y1="202" x2="926" y2="202" stroke="#de77ae" stroke-width="1"/>
	</g>
	<text x="839" y="194.75" fill="#000000" font-family="Verdana" font-size="12">PRODUCT</text>
	<text x="817" y="219.8" fill="#000000" font-family="Verdana" font-size="12">type</text>
	<line x1="817" y1="222" x2="845" y2="222" stroke="#000000" stroke-width="1"/>
	<text x="817" y="236.8" fill="#000000" font-family="Verdana" font-size="12">primary_name</text>
	<text x="817" y="253.8" fill="#000000" font-family="Verdana" font-size="12">secondary_name</text>
	<text x="817" y="270.8" fill="#000000" font-family="Verdana" font-size="12">alcool_degree</text>
	<text x="817" y="287.8" fill="#000000" font-family="Verdana" font-size="12">price_ht</text>
	<text x="817" y="304.8" fill="#000000" font-family="Verdana" font-size="12">price_ttc</text>
	<text x="817" y="321.8" fill="#000000" font-family="Verdana" font-size="12">tax_amount</text>
	<text x="817" y="338.8" fill="#000000" font-family="Verdana" font-size="12">weight</text>
</g>

<!-- Entity TRANSACTION -->
<g>
	<g>
		<rect x="33" y="423" width="112" height="25" fill="#f1b6da" stroke="none" stroke-width="0" opacity="1"/>
		<rect x="33" y="448" width="112" height="93" fill="#fde0ef" stroke="none" stroke-width="0" opacity="1"/>
		<rect x="33" y="423" width="112" height="118" fill="none" stroke="#de77ae" stroke-width="2" opacity="1"/>
		<line x1="33" y1="448" x2="145" y2="448" stroke="#de77ae" stroke-width="1"/>
	</g>
	<text x="44" y="440.75" fill="#000000" font-family="Verdana" font-size="12">TRANSACTION</text>
	<text x="38" y="465.8" fill="#000000" font-family="Verdana" font-size="12">account_number</text>
	<line x1="38" y1="468" x2="140" y2="468" stroke="#000000" stroke-width="1"/>
	<text x="38" y="482.8" fill="#000000" font-family="Verdana" font-size="12">type</text>
	<text x="38" y="499.8" fill="#000000" font-family="Verdana" font-size="12">amount_ht</text>
	<text x="38" y="516.8" fill="#000000" font-family="Verdana" font-size="12">amount_ttc</text>
	<text x="38" y="533.8" fill="#000000" font-family="Verdana" font-size="12">date</text>
</g>

<!-- Entity RECEIVER -->
<g>
	<g>
		<rect x="511" y="431" width="84" height="25" fill="#f1b6da" stroke="none" stroke-width="0" opacity="1"/>
		<rect x="511" y="456" width="84" height="77" fill="#fde0ef" stroke="none" stroke-width="0" opacity="1"/>
		<rect x="511" y="431" width="84" height="102" fill="none" stroke="#de77ae" stroke-width="2" opacity="1"/>
		<line x1="511" y1="456" x2="595" y2="456" stroke="#de77ae" stroke-width="1"/>
	</g>
	<text x="522" y="448.75" fill="#000000" font-family="Verdana" font-size="12">RECEIVER</text>
	<text x="516" y="473.8" fill="#000000" font-family="Verdana" font-size="12">name</text>
	<line x1="516" y1="476" x2="551" y2="476" stroke="#000000" stroke-width="1"/>
	<text x="516" y="490.8" fill="#000000" font-family="Verdana" font-size="12">siret</text>
	<text x="516" y="507.8" fill="#000000" font-family="Verdana" font-size="12">tva_number</text>
	<text x="516" y="524.8" fill="#000000" font-family="Verdana" font-size="12">tiers_code</text>
</g>

<!-- Entity SENDER -->
<g>
	<g>
		<rect x="179" y="532" width="164" height="25" fill="#f1b6da" stroke="none" stroke-width="0" opacity="1"/>
		<rect x="179" y="557" width="164" height="145" fill="#fde0ef" stroke="none" stroke-width="0" opacity="1"/>
		<rect x="179" y="532" width="164" height="170" fill="none" stroke="#de77ae" stroke-width="2" opacity="1"/>
		<line x1="179" y1="557" x2="343" y2="557" stroke="#de77ae" stroke-width="1"/>
	</g>
	<text x="236" y="549.75" fill="#000000" font-family="Verdana" font-size="12">SENDER</text>
	<text x="184" y="574.8" fill="#000000" font-family="Verdana" font-size="12">name</text>
	<line x1="184" y1="577" x2="219" y2="577" stroke="#000000" stroke-width="1"/>
	<text x="184" y="591.8" fill="#000000" font-family="Verdana" font-size="12">siret</text>
	<text x="184" y="608.8" fill="#000000" font-family="Verdana" font-size="12">tva_reference</text>
	<text x="184" y="625.8" fill="#000000" font-family="Verdana" font-size="12">fda_number</text>
	<text x="184" y="642.8" fill="#000000" font-family="Verdana" font-size="12">eori_reference</text>
	<text x="184" y="659.8" fill="#000000" font-family="Verdana" font-size="12">fedex_account_reference</text>
	<text x="184" y="676.8" fill="#000000" font-family="Verdana" font-size="12">tiers_code</text>
	<text x="184" y="693.8" fill="#000000" font-family="Verdana" font-size="12">default_order_category</text>
</g>

<!-- Entity COLA -->
<g>
	<g>
		<rect x="678" y="600" width="44" height="25" fill="#f1b6da" stroke="none" stroke-width="0" opacity="1"/>
		<rect x="678" y="625" width="44" height="9" fill="#fde0ef" stroke="none" stroke-width="0" opacity="1"/>
		<rect x="678" y="600" width="44" height="34" fill="none" stroke="#de77ae" stroke-width="2" opacity="1"/>
		<line x1="678" y1="625" x2="722" y2="625" stroke="#de77ae" stroke-width="1"/>
	</g>
	<text x="683" y="617.75" fill="#000000" font-family="Verdana" font-size="12">COLA</text>
</g>

<!-- Entity PRODUCT_CAPACITY -->
<g>
	<g>
		<rect x="800" y="583" width="138" height="25" fill="#f1b6da" stroke="none" stroke-width="0" opacity="1"/>
		<rect x="800" y="608" width="138" height="43" fill="#fde0ef" stroke="none" stroke-width="0" opacity="1"/>
		<rect x="800" y="583" width="138" height="68" fill="none" stroke="#de77ae" stroke-width="2" opacity="1"/>
		<line x1="800" y1="608" x2="938" y2="608" stroke="#de77ae" stroke-width="1"/>
	</g>
	<text x="805" y="600.75" fill="#000000" font-family="Verdana" font-size="12">PRODUCT_CAPACITY</text>
	<text x="805" y="625.8" fill="#000000" font-family="Verdana" font-size="12">name</text>
	<line x1="805" y1="628" x2="840" y2="628" stroke="#000000" stroke-width="1"/>
	<text x="805" y="642.8" fill="#000000" font-family="Verdana" font-size="12">value</text>
</g>

<!-- Entity EMPLOYEE -->
<g>
	<g>
		<rect x="9" y="727" width="160" height="25" fill="#f1b6da" stroke="none" stroke-width="0" opacity="1"/>
		<rect x="9" y="752" width="160" height="179" fill="#fde0ef" stroke="none" stroke-width="0" opacity="1"/>
		<rect x="9" y="727" width="160" height="204" fill="none" stroke="#de77ae" stroke-width="2" opacity="1"/>
		<line x1="9" y1="752" x2="169" y2="752" stroke="#de77ae" stroke-width="1"/>
	</g>
	<text x="57" y="744.75" fill="#000000" font-family="Verdana" font-size="12">EMPLOYEE</text>
	<text x="14" y="769.8" fill="#000000" font-family="Verdana" font-size="12">email</text>
	<line x1="14" y1="772" x2="48" y2="772" stroke="#000000" stroke-width="1"/>
	<text x="14" y="786.8" fill="#000000" font-family="Verdana" font-size="12">firstname</text>
	<text x="14" y="803.8" fill="#000000" font-family="Verdana" font-size="12">lastname</text>
	<text x="14" y="820.8" fill="#000000" font-family="Verdana" font-size="12">password</text>
	<text x="14" y="837.8" fill="#000000" font-family="Verdana" font-size="12">role</text>
	<text x="14" y="854.8" fill="#000000" font-family="Verdana" font-size="12">civility</text>
	<text x="14" y="871.8" fill="#000000" font-family="Verdana" font-size="12">job</text>
	<text x="14" y="888.8" fill="#000000" font-family="Verdana" font-size="12">language_iso_code</text>
	<text x="14" y="905.8" fill="#000000" font-family="Verdana" font-size="12">phone_portable_number</text>
	<text x="14" y="922.8" fill="#000000" font-family="Verdana" font-size="12">phone_fix_number</text>
</g>

<!-- Entity NOTE -->
<g>
	<g>
		<rect x="382" y="804" width="56" height="25" fill="#f1b6da" stroke="none" stroke-width="0" opacity="1"/>
		<rect x="382" y="829" width="56" height="25" fill="#fde0ef" stroke="none" stroke-width="0" opacity="1"/>
		<rect x="382" y="804" width="56" height="50" fill="none" stroke="#de77ae" stroke-width="2" opacity="1"/>
		<line x1="382" y1="829" x2="438" y2="829" stroke="#de77ae" stroke-width="1"/>
	</g>
	<text x="393" y="821.75" fill="#000000" font-family="Verdana" font-size="12">NOTE</text>
	<text x="387" y="846.8" fill="#000000" font-family="Verdana" font-size="12">content</text>
	<line x1="387" y1="849" x2="433" y2="849" stroke="#000000" stroke-width="1"/>
</g>

<!-- Entity ADDRESS -->
<g>
	<g>
		<rect x="518" y="761" width="70" height="25" fill="#f1b6da" stroke="none" stroke-width="0" opacity="1"/>
		<rect x="518" y="786" width="70" height="111" fill="#fde0ef" stroke="none" stroke-width="0" opacity="1"/>
		<rect x="518" y="761" width="70" height="136" fill="none" stroke="#de77ae" stroke-width="2" opacity="1"/>
		<line x1="518" y1="786" x2="588" y2="786" stroke="#de77ae" stroke-width="1"/>
	</g>
	<text x="523" y="778.75" fill="#000000" font-family="Verdana" font-size="12">ADDRESS</text>
	<text x="523" y="803.8" fill="#000000" font-family="Verdana" font-size="12">address1</text>
	<line x1="523" y1="806" x2="579" y2="806" stroke="#000000" stroke-width="1"/>
	<text x="523" y="820.8" fill="#000000" font-family="Verdana" font-size="12">address2</text>
	<text x="523" y="837.8" fill="#000000" font-family="Verdana" font-size="12">city</text>
	<text x="523" y="854.8" fill="#000000" font-family="Verdana" font-size="12">zip_code</text>
	<text x="523" y="871.8" fill="#000000" font-family="Verdana" font-size="12">type</text>
	<text x="523" y="888.8" fill="#000000" font-family="Verdana" font-size="12">is_default</text>
</g>

<!-- Entity COUNTRY -->
<g>
	<g>
		<rect x="834" y="795" width="70" height="25" fill="#f1b6da" stroke="none" stroke-width="0" opacity="1"/>
		<rect x="834" y="820" width="70" height="43" fill="#fde0ef" stroke="none" stroke-width="0" opacity="1"/>
		<rect x="834" y="795" width="70" height="68" fill="none" stroke="#de77ae" stroke-width="2" opacity="1"/>
		<line x1="834" y1="820" x2="904" y2="820" stroke="#de77ae" stroke-width="1"/>
	</g>
	<text x="839" y="812.75" fill="#000000" font-family="Verdana" font-size="12">COUNTRY</text>
	<text x="839" y="837.8" fill="#000000" font-family="Verdana" font-size="12">iso_code</text>
	<line x1="839" y1="840" x2="893" y2="840" stroke="#000000" stroke-width="1"/>
	<text x="839" y="854.8" fill="#000000" font-family="Verdana" font-size="12">name</text>
</g>
</svg>