<?xml version="1.0" encoding="utf-8"?>
<!-- Generated by Mocodo 4.2.8 -->
<svg width="427" height="413" viewBox="0 0 427 413" xmlns="http://www.w3.org/2000/svg">
<rect x="0" y="0" width="427" height="413" fill="#f7f7f7" stroke="none" stroke-width="0"/>

<!-- Association DESCRIBE -->
<g>
	<line x1="268" y1="127" x2="268" y2="43" stroke="#e08214" stroke-width="2"/>
	<line x1="162" y1="43" x2="268" y2="43" stroke="#e08214" stroke-width="2"/>
	<g>
		<path d="M288 18 a14 14 90 0 1 14 14 V43 h-68 V32 a14 14 90 0 1 14 -14" fill="#fdb863" stroke="#fdb863" stroke-width="0"/>
		<path d="M302 43 v11 a14 14 90 0 1 -14 14 H248 a14 14 90 0 1 -14 -14 V43 H68" fill="#fee0b6" stroke="#fee0b6" stroke-width="0"/>
		<rect x="234" y="18" width="68" height="50" fill="none" rx="14" stroke="#e08214" stroke-width="2"/>
		<line x1="234" y1="43" x2="302" y2="43" stroke="#e08214" stroke-width="1"/>
		<text x="242" y="35.75" fill="#000000" font-family="Verdana" font-size="12">Describe</text>
	</g>
	<text x="273" y="94" fill="#542788" font-family="Verdana" font-size="12">1,N</text>
	<text x="206" y="60" fill="#542788" font-family="Verdana" font-size="12">1,N</text>
</g>

<!-- Association DEFINE -->
<g>
	<line x1="162" y1="236" x2="52" y2="127" stroke="#e08214" stroke-width="2"/>
	<line x1="52" y1="43" x2="52" y2="127" stroke="#e08214" stroke-width="2"/>
	<g>
		<path d="M65 102 a14 14 90 0 1 14 14 V127 h-54 V116 a14 14 90 0 1 14 -14" fill="#fdb863" stroke="#fdb863" stroke-width="0"/>
		<path d="M79 127 v11 a14 14 90 0 1 -14 14 H39 a14 14 90 0 1 -14 -14 V127 H54" fill="#fee0b6" stroke="#fee0b6" stroke-width="0"/>
		<rect x="25" y="102" width="54" height="50" fill="none" rx="14" stroke="#e08214" stroke-width="2"/>
		<line x1="25" y1="127" x2="79" y2="127" stroke="#e08214" stroke-width="1"/>
		<text x="32" y="119.75" fill="#000000" font-family="Verdana" font-size="12">Define</text>
	</g>
	<text x="101" y="212.28" fill="#542788" font-family="Verdana" font-size="12">1,N</text>
	<text x="57" y="85" fill="#542788" font-family="Verdana" font-size="12">1,1</text>
</g>

<!-- Association CREATE -->
<g>
	<line x1="268" y1="127" x2="162" y2="127" stroke="#e08214" stroke-width="2"/>
	<line x1="162" y1="236" x2="162" y2="127" stroke="#e08214" stroke-width="2"/>
	<g>
		<path d="M176 102 a14 14 90 0 1 14 14 V127 h-56 V116 a14 14 90 0 1 14 -14" fill="#fdb863" stroke="#fdb863" stroke-width="0"/>
		<path d="M190 127 v11 a14 14 90 0 1 -14 14 H148 a14 14 90 0 1 -14 -14 V127 H56" fill="#fee0b6" stroke="#fee0b6" stroke-width="0"/>
		<rect x="134" y="102" width="56" height="50" fill="none" rx="14" stroke="#e08214" stroke-width="2"/>
		<line x1="134" y1="127" x2="190" y2="127" stroke="#e08214" stroke-width="1"/>
		<text x="142" y="119.75" fill="#000000" font-family="Verdana" font-size="12">Create</text>
	</g>
	<text x="213" y="144" fill="#542788" font-family="Verdana" font-size="12">1,N</text>
	<text x="167" y="169" fill="#542788" font-family="Verdana" font-size="12">1,1</text>
</g>

<!-- Association ANSWER -->
<g>
	<line x1="268" y1="127" x2="373" y2="127" stroke="#e08214" stroke-width="2"/>
	<line x1="373" y1="236" x2="373" y2="127" stroke="#e08214" stroke-width="2"/>
	<g>
		<path d="M389 102 a14 14 90 0 1 14 14 V127 h-60 V116 a14 14 90 0 1 14 -14" fill="#fdb863" stroke="#fdb863" stroke-width="0"/>
		<path d="M403 127 v11 a14 14 90 0 1 -14 14 H357 a14 14 90 0 1 -14 -14 V127 H60" fill="#fee0b6" stroke="#fee0b6" stroke-width="0"/>
		<rect x="343" y="102" width="60" height="50" fill="none" rx="14" stroke="#e08214" stroke-width="2"/>
		<line x1="343" y1="127" x2="403" y2="127" stroke="#e08214" stroke-width="1"/>
		<text x="351" y="119.75" fill="#000000" font-family="Verdana" font-size="12">Answer</text>
	</g>
	<text x="301" y="144" fill="#542788" font-family="Verdana" font-size="12">1,1</text>
	<text x="378" y="203" fill="#542788" font-family="Verdana" font-size="12">1,N</text>
</g>

<!-- Association PARTICIPATES -->
<g>
	<line x1="52" y1="345" x2="52" y2="236" stroke="#e08214" stroke-width="2"/>
	<line x1="162" y1="236" x2="52" y2="236" stroke="#e08214" stroke-width="2"/>
	<g>
		<path d="M81 211 a14 14 90 0 1 14 14 V236 h-86 V225 a14 14 90 0 1 14 -14" fill="#fdb863" stroke="#fdb863" stroke-width="0"/>
		<path d="M95 236 v11 a14 14 90 0 1 -14 14 H23 a14 14 90 0 1 -14 -14 V236 H86" fill="#fee0b6" stroke="#fee0b6" stroke-width="0"/>
		<rect x="9" y="211" width="86" height="50" fill="none" rx="14" stroke="#e08214" stroke-width="2"/>
		<line x1="9" y1="236" x2="95" y2="236" stroke="#e08214" stroke-width="1"/>
		<text x="17" y="228.75" fill="#000000" font-family="Verdana" font-size="12">Participates</text>
	</g>
	<text x="57" y="286" fill="#542788" font-family="Verdana" font-size="12">N,N</text>
	<text x="100" y="253" fill="#542788" font-family="Verdana" font-size="12">N,N</text>
</g>

<!-- Association POST -->
<g>
	<line x1="373" y1="236" x2="268" y2="236" stroke="#e08214" stroke-width="2"/>
	<line x1="162" y1="236" x2="268" y2="236" stroke="#e08214" stroke-width="2"/>
	<g>
		<path d="M274 211 a14 14 90 0 1 14 14 V236 h-40 V225 a14 14 90 0 1 14 -14" fill="#fdb863" stroke="#fdb863" stroke-width="0"/>
		<path d="M288 236 v11 a14 14 90 0 1 -14 14 H262 a14 14 90 0 1 -14 -14 V236 H40" fill="#fee0b6" stroke="#fee0b6" stroke-width="0"/>
		<rect x="248" y="211" width="40" height="50" fill="none" rx="14" stroke="#e08214" stroke-width="2"/>
		<line x1="248" y1="236" x2="288" y2="236" stroke="#e08214" stroke-width="1"/>
		<text x="255" y="228.75" fill="#000000" font-family="Verdana" font-size="12">Post</text>
	</g>
	<text x="301" y="253" fill="#542788" font-family="Verdana" font-size="12">1,N</text>
	<text x="201" y="228" fill="#542788" font-family="Verdana" font-size="12">1,1</text>
</g>

<!-- Association PLAN -->
<g>
	<line x1="52" y1="345" x2="162" y2="345" stroke="#e08214" stroke-width="2"/>
	<line x1="162" y1="236" x2="162" y2="345" stroke="#e08214" stroke-width="2"/>
	<g>
		<path d="M168 320 a14 14 90 0 1 14 14 V345 h-40 V334 a14 14 90 0 1 14 -14" fill="#fdb863" stroke="#fdb863" stroke-width="0"/>
		<path d="M182 345 v11 a14 14 90 0 1 -14 14 H156 a14 14 90 0 1 -14 -14 V345 H40" fill="#fee0b6" stroke="#fee0b6" stroke-width="0"/>
		<rect x="142" y="320" width="40" height="50" fill="none" rx="14" stroke="#e08214" stroke-width="2"/>
		<line x1="142" y1="345" x2="182" y2="345" stroke="#e08214" stroke-width="1"/>
		<text x="149" y="337.75" fill="#000000" font-family="Verdana" font-size="12">Plan</text>
	</g>
	<text x="96" y="362" fill="#542788" font-family="Verdana" font-size="12">1,N</text>
	<text x="136" y="312" fill="#542788" font-family="Verdana" font-size="12">1,1</text>
</g>

<!-- Association REGISTER -->
<g>
	<line x1="373" y1="345" x2="268" y2="345" stroke="#e08214" stroke-width="2"/>
	<line x1="162" y1="236" x2="268" y2="345" stroke="#e08214" stroke-width="2"/>
	<g>
		<path d="M287 320 a14 14 90 0 1 14 14 V345 h-66 V334 a14 14 90 0 1 14 -14" fill="#fdb863" stroke="#fdb863" stroke-width="0"/>
		<path d="M301 345 v11 a14 14 90 0 1 -14 14 H249 a14 14 90 0 1 -14 -14 V345 H66" fill="#fee0b6" stroke="#fee0b6" stroke-width="0"/>
		<rect x="235" y="320" width="66" height="50" fill="none" rx="14" stroke="#e08214" stroke-width="2"/>
		<line x1="235" y1="345" x2="301" y2="345" stroke="#e08214" stroke-width="1"/>
		<text x="243" y="337.75" fill="#000000" font-family="Verdana" font-size="12">Register</text>
	</g>
	<text x="307" y="362" fill="#542788" font-family="Verdana" font-size="12">1,N</text>
	<text x="201" y="269.89" fill="#542788" font-family="Verdana" font-size="12">1,1</text>
</g>

<!-- Entity ROLES -->
<g>
	<g>
		<rect x="29" y="18" width="46" height="25" fill="#b2abd2" stroke="none" stroke-width="0" opacity="1"/>
		<rect x="29" y="43" width="46" height="25" fill="#d8daeb" stroke="none" stroke-width="0" opacity="1"/>
		<rect x="29" y="18" width="46" height="50" fill="none" stroke="#8073ac" stroke-width="2" opacity="1"/>
		<line x1="29" y1="43" x2="75" y2="43" stroke="#8073ac" stroke-width="1"/>
	</g>
	<text x="36" y="35.75" fill="#000000" font-family="Verdana" font-size="12">Roles</text>
	<text x="34" y="60.8" fill="#000000" font-family="Verdana" font-size="12">name</text>
	<line x1="34" y1="63" x2="69" y2="63" stroke="#000000" stroke-width="1"/>
</g>

<!-- Entity CATEGORY -->
<g>
	<g>
		<rect x="123" y="9" width="78" height="25" fill="#b2abd2" stroke="none" stroke-width="0" opacity="1"/>
		<rect x="123" y="34" width="78" height="43" fill="#d8daeb" stroke="none" stroke-width="0" opacity="1"/>
		<rect x="123" y="9" width="78" height="68" fill="none" stroke="#8073ac" stroke-width="2" opacity="1"/>
		<line x1="123" y1="34" x2="201" y2="34" stroke="#8073ac" stroke-width="1"/>
	</g>
	<text x="134" y="26.75" fill="#000000" font-family="Verdana" font-size="12">Category</text>
	<text x="128" y="51.8" fill="#000000" font-family="Verdana" font-size="12">name</text>
	<line x1="128" y1="54" x2="163" y2="54" stroke="#000000" stroke-width="1"/>
	<text x="128" y="68.8" fill="#000000" font-family="Verdana" font-size="12">description</text>
</g>

<!-- Entity FORUMS -->
<g>
	<g>
		<rect x="240" y="102" width="56" height="25" fill="#b2abd2" stroke="none" stroke-width="0" opacity="1"/>
		<rect x="240" y="127" width="56" height="25" fill="#d8daeb" stroke="none" stroke-width="0" opacity="1"/>
		<rect x="240" y="102" width="56" height="50" fill="none" stroke="#8073ac" stroke-width="2" opacity="1"/>
		<line x1="240" y1="127" x2="296" y2="127" stroke="#8073ac" stroke-width="1"/>
	</g>
	<text x="245" y="119.75" fill="#000000" font-family="Verdana" font-size="12">Forums</text>
	<text x="245" y="144.8" fill="#000000" font-family="Verdana" font-size="12">title</text>
	<line x1="245" y1="147" x2="269" y2="147" stroke="#000000" stroke-width="1"/>
</g>

<!-- Entity USERS -->
<g>
	<g>
		<rect x="128" y="177" width="68" height="25" fill="#b2abd2" stroke="none" stroke-width="0" opacity="1"/>
		<rect x="128" y="202" width="68" height="93" fill="#d8daeb" stroke="none" stroke-width="0" opacity="1"/>
		<rect x="128" y="177" width="68" height="118" fill="none" stroke="#8073ac" stroke-width="2" opacity="1"/>
		<line x1="128" y1="202" x2="196" y2="202" stroke="#8073ac" stroke-width="1"/>
	</g>
	<text x="145" y="194.75" fill="#000000" font-family="Verdana" font-size="12">Users</text>
	<text x="133" y="219.8" fill="#000000" font-family="Verdana" font-size="12">mail</text>
	<line x1="133" y1="222" x2="159" y2="222" stroke="#000000" stroke-width="1"/>
	<text x="133" y="236.8" fill="#000000" font-family="Verdana" font-size="12">pass</text>
	<text x="133" y="253.8" fill="#000000" font-family="Verdana" font-size="12">firstname</text>
	<text x="133" y="270.8" fill="#000000" font-family="Verdana" font-size="12">lastname</text>
	<text x="133" y="287.8" fill="#000000" font-family="Verdana" font-size="12">address</text>
</g>

<!-- Entity FORUM_POSTS -->
<g>
	<g>
		<rect x="328" y="211" width="90" height="25" fill="#b2abd2" stroke="none" stroke-width="0" opacity="1"/>
		<rect x="328" y="236" width="90" height="25" fill="#d8daeb" stroke="none" stroke-width="0" opacity="1"/>
		<rect x="328" y="211" width="90" height="50" fill="none" stroke="#8073ac" stroke-width="2" opacity="1"/>
		<line x1="328" y1="236" x2="418" y2="236" stroke="#8073ac" stroke-width="1"/>
	</g>
	<text x="334" y="228.75" fill="#000000" font-family="Verdana" font-size="12">Forum_Posts</text>
	<text x="333" y="253.8" fill="#000000" font-family="Verdana" font-size="12">content</text>
	<line x1="333" y1="256" x2="379" y2="256" stroke="#000000" stroke-width="1"/>
</g>

<!-- Entity EVENTS -->
<g>
	<g>
		<rect x="13" y="294" width="78" height="25" fill="#b2abd2" stroke="none" stroke-width="0" opacity="1"/>
		<rect x="13" y="319" width="78" height="77" fill="#d8daeb" stroke="none" stroke-width="0" opacity="1"/>
		<rect x="13" y="294" width="78" height="102" fill="none" stroke="#8073ac" stroke-width="2" opacity="1"/>
		<line x1="13" y1="319" x2="91" y2="319" stroke="#8073ac" stroke-width="1"/>
	</g>
	<text x="32" y="311.75" fill="#000000" font-family="Verdana" font-size="12">Events</text>
	<text x="18" y="336.8" fill="#000000" font-family="Verdana" font-size="12">title</text>
	<line x1="18" y1="339" x2="42" y2="339" stroke="#000000" stroke-width="1"/>
	<text x="18" y="353.8" fill="#000000" font-family="Verdana" font-size="12">description</text>
	<text x="18" y="370.8" fill="#000000" font-family="Verdana" font-size="12">date</text>
	<text x="18" y="387.8" fill="#000000" font-family="Verdana" font-size="12">location</text>
</g>

<!-- Entity GARDENS -->
<g>
	<g>
		<rect x="334" y="286" width="78" height="25" fill="#b2abd2" stroke="none" stroke-width="0" opacity="1"/>
		<rect x="334" y="311" width="78" height="93" fill="#d8daeb" stroke="none" stroke-width="0" opacity="1"/>
		<rect x="334" y="286" width="78" height="118" fill="none" stroke="#8073ac" stroke-width="2" opacity="1"/>
		<line x1="334" y1="311" x2="412" y2="311" stroke="#8073ac" stroke-width="1"/>
	</g>
	<text x="348" y="303.75" fill="#000000" font-family="Verdana" font-size="12">Gardens</text>
	<text x="339" y="328.8" fill="#000000" font-family="Verdana" font-size="12">name</text>
	<line x1="339" y1="331" x2="374" y2="331" stroke="#000000" stroke-width="1"/>
	<text x="339" y="345.8" fill="#000000" font-family="Verdana" font-size="12">latitude</text>
	<text x="339" y="362.8" fill="#000000" font-family="Verdana" font-size="12">longitude</text>
	<text x="339" y="379.8" fill="#000000" font-family="Verdana" font-size="12">description</text>
	<text x="339" y="396.8" fill="#000000" font-family="Verdana" font-size="12">img_path</text>
</g>
</svg>